<?xml version="1.0" encoding="utf-8"?>
<!-- Generator: Adobe Illustrator 24.1.1, SVG Export Plug-In . SVG Version: 6.00 Build 0)  -->
<svg version="1.1" id="Calque_1" xmlns="http://www.w3.org/2000/svg" xmlns:xlink="http://www.w3.org/1999/xlink" x="0px" y="0px"
	 viewBox="0 0 40 40" style="enable-background:new 0 0 40 40;" xml:space="preserve">
<style type="text/css">
	.st0{display:none;}
	.st1{fill:#E84424;stroke:#E84424;stroke-miterlimit:10;}
	.st2{fill:#E84424;}
</style>

<g>
	<path  fill="#E84424" stroke="#E84424" stroke-miterlimit="10" class="st1" d="M20.3,5.1c-0.1,0-0.1,0-0.2,0L5,12.6c-0.1,0-0.1,0.1-0.1,0.2L4.8,27.3c0,0.1,0.1,0.1,0.1,0.2L20.1,35
		c0,0,0.1,0,0.2,0c0.1,0,0.1,0,0.2,0l15.2-7.5c0.1,0,0.1-0.1,0.1-0.2l-0.1-14.5c0-0.1-0.1-0.1-0.1-0.2L20.5,5.1
		C20.5,5.1,20.4,5.1,20.3,5.1 M20.2,36c-0.2,0-0.4,0-0.6-0.1L4.5,28.3c-0.4-0.2-0.6-0.6-0.6-1L4,12.7c0-0.4,0.3-0.9,0.6-1l15.2-7.5
		C20,4,20.2,4,20.3,4c0.2,0,0.4,0,0.6,0.1L36,11.7c0.4,0.2,0.6,0.6,0.6,1l0.1,14.5c0,0.4-0.3,0.9-0.6,1l-15.2,7.5
		C20.6,36,20.4,36,20.2,36"/>
	<polygon  fill="#E84424" stroke="#E84424" stroke-miterlimit="10" class="st1" points="20.7,35.6 19.7,35.6 19.8,20.6 4.2,12.8 4.6,11.9 20.8,19.9 	"/>
	
		<rect fill="#E84424" stroke="#E84424" stroke-miterlimit="10" x="19.4" y="15.9" transform="matrix(0.8958 -0.4445 0.4445 0.8958 -4.2983 14.2576)" class="st1" width="17.7" height="0.9"/>
	<path fill="#E84424" stroke="#E84424" stroke-miterlimit="10" class="st1" d="M12.2,29.2c-0.1,0.2-0.4,0.2-0.8,0l-0.6-0.3c-0.3-0.2-0.6-0.5-0.5-0.6c0.1-0.2,0.4-0.2,0.8,0l0.6,0.3
		C12.1,28.7,12.3,29,12.2,29.2"/>
	<path fill="#E84424" stroke="#E84424" stroke-miterlimit="10" class="st1" d="M9.3,27.7c-0.1,0.2-0.4,0.2-0.8,0l-1.7-0.8c-0.3-0.2-0.6-0.6-0.6-1v-3.4c0-0.4,0.2-0.7,0.3-0.7
		c0.2,0,0.3,0.3,0.3,0.7v3c0,0.4,0.3,0.9,0.6,1l1.3,0.6C9.2,27.3,9.4,27.6,9.3,27.7"/>
	<path fill="#E84424" class="st2" d="M13.8,13c-1.3,0-2.3-0.7-2.3-1.5c0-0.8,1-1.5,2.3-1.5s2.3,0.7,2.3,1.5C16.1,12.3,15.1,13,13.8,13 M16.5,11.5
		L16.5,11.5c0-1.1-1.2-1.9-2.7-1.9s-2.7,0.8-2.7,1.9v0.1v0.1v0.1v0.1v0.1v0.1v0.1v0.1v0.1V12V12v0.1v0.1v0.1v0.1v0.1v0.1v0.1v0.1
		v0.1c0,1,1.2,1.9,2.7,1.9s2.7-0.8,2.7-1.9v-0.1v-0.1v-0.1v-0.1v-0.1v-0.1v-0.1v-0.1V12V12v-0.1v-0.1v-0.1v-0.1v-0.1v-0.1v-0.1V11.5
		C16.5,11.6,16.5,11.5,16.5,11.5"/>
	<path fill="#E84424" class="st2" d="M20,15.8c-1.3,0-2.3-0.7-2.3-1.5c0-0.8,1-1.5,2.3-1.5c1.3,0,2.3,0.7,2.3,1.5S21.3,15.8,20,15.8 M22.7,14.4
		L22.7,14.4c0-1.1-1.2-1.9-2.7-1.9c-1.5,0-2.7,0.8-2.7,1.9v0.1v0.1v0.1v0.1v0.1v0.1v0.1v0.1v0.1v0.1v0.1v0.1V15V15v0.1v0.1v0.1v0.1
		v0.1v0.1c0,1,1.2,1.9,2.7,1.9c1.5,0,2.7-0.8,2.7-1.9v-0.1v-0.1v-0.1v-0.1v-0.1V15V15v-0.1v-0.1v-0.1v-0.1v-0.1v-0.1v-0.1v-0.1v-0.1
		v-0.1V14.4C22.7,14.4,22.7,14.4,22.7,14.4"/>
	<path fill="#E84424" class="st2" d="M26.4,13.1c-1.3,0-2.3-0.7-2.3-1.5c0-0.8,1-1.5,2.3-1.5s2.3,0.7,2.3,1.5C28.7,12.4,27.6,13.1,26.4,13.1
		 M29,11.7L29,11.7c0-1.1-1.2-1.9-2.7-1.9s-2.7,0.8-2.7,1.9v0.1v0.1v0.1v0.1v0.1v0.1V12V12v0.1v0.1v0.1v0.1v0.1v0.1v0.1v0.1v0.1v0.1
		v0.1v0.1c0,1,1.2,1.9,2.7,1.9s2.7-0.8,2.7-1.9v-0.1v-0.1v-0.1v-0.1v-0.1v-0.1v-0.1v-0.1v-0.1v-0.1v-0.1V12V12v-0.1v-0.1v-0.1v-0.1
		V11.7C29,11.7,29,11.7,29,11.7"/>
	<path fill="#E84424" class="st2" d="M20,10c-1.3,0-2.3-0.7-2.3-1.5S18.7,7,20,7c1.3,0,2.3,0.7,2.3,1.5C22.4,9.3,21.3,10,20,10 M22.7,8.5L22.7,8.5
		c0-1.1-1.2-1.9-2.7-1.9c-1.5,0-2.7,0.8-2.7,1.9v0.1v0.1v0.1v0.1v0.1v0.1v0.1v0.1V9V9v0.1v0.1v0.1v0.1v0.1v0.1v0.1v0.1v0.1v0.1
		c0,1,1.2,1.9,2.7,1.9c1.5,0,2.7-0.8,2.7-1.9V9.5V9.4V9.4V9.3V9.3V9.2V9.2V9.1V9.1V9V9V8.9V8.9V8.8V8.7V8.7V8.6V8.5
		C22.7,8.6,22.7,8.6,22.7,8.5"/>
</g>
</svg>
