<?xml version="1.0" encoding="utf-8"?>
<!-- Generator: Adobe Illustrator 24.1.1, SVG Export Plug-In . SVG Version: 6.00 Build 0)  -->
<svg version="1.1" id="Calque_1" xmlns="http://www.w3.org/2000/svg" xmlns:xlink="http://www.w3.org/1999/xlink" x="0px" y="0px"
	 viewBox="0 0 40 40" style="enable-background:new 0 0 40 40;" xml:space="preserve">
<style type="text/css">
	.st0{display:none;}
	.st1{fill:none;stroke:#E84424;stroke-width:0.9308;stroke-miterlimit:10;}
	.st2{fill:#E84424;}
	.st3{fill:#E84424;stroke:#E84424;stroke-width:0.6011;stroke-miterlimit:10;}
	.st4{fill:#E84424;stroke:#E84424;stroke-width:0.2863;stroke-miterlimit:10;}
	.st5{fill:none;stroke:#E84424;stroke-width:1.0265;stroke-miterlimit:10;}
	.st6{fill:none;stroke:#000000;stroke-width:1.1764;stroke-miterlimit:10;}
</style>

<path  fill="#E84424" stroke="#E84424" stroke-width="0.9308" stroke-miterlimit="10" class="st1" d="M19.5,5.8h-7.3c-2,0-3.7,1.6-3.7,3.7v24.9c0,2,1.6,3.7,3.7,3.7h16.2c2,0,3.7-1.6,3.7-3.7V9.4
	c0-2-1.6-3.7-3.7-3.7h-7.3"/>
<rect  fill="#E84424" x="19.9" y="2" class="st2" width="0.9" height="7.5"/>
<rect  fill="#E84424" stroke="#E84424"  x="14" y="29.6" class="st3" width="13" height="2.1"/>
<rect  fill="#E84424" stroke="#E84424" x="14" y="33.6" class="st3" width="13" height="0.6"/>
<g>
	<circle  fill="#E84424" stroke="#E84424" class="st4" cx="20.3" cy="16.7" r="2.6"/>
	<path  fill="#E84424" stroke="#E84424" class="st4" d="M19.6,20.3c-2.2,0.4-3.9,2.2-3.9,4.6h9.2c0-2.2-1.6-4.1-3.7-4.5c-0.1,0.4-0.5,0.7-0.8,1.1"/>
</g>
<rect fill="#E84424" stroke="#E84424"  x="14.3" y="11" class="st5" width="12" height="15.8"/>
<path fill="#000000" stroke="#000000"    class="st6" d="M9.3,30.4"/>
</svg>
