<?xml version="1.0" encoding="utf-8"?>
<!-- Generator: Adobe Illustrator 24.1.1, SVG Export Plug-In . SVG Version: 6.00 Build 0)  -->
<svg version="1.1" id="Calque_1" xmlns="http://www.w3.org/2000/svg" xmlns:xlink="http://www.w3.org/1999/xlink" x="0px" y="0px"
	 viewBox="0 0 40 40" style="enable-background:new 0 0 40 40;" xml:space="preserve">
<style type="text/css">
	.st0{display:none;}
	.st1{fill-rule:evenodd;clip-rule:evenodd;fill:#E84424;}
</style>

<g>
	<g>
		<path  fill-rule="evenodd" clip-rule="evenodd" fill="#E84424" class="st1" d="M24,22.3H9.1c-0.6,0-1,0.4-1,1s0.4,1,1,1H24c0.5,0,1-0.4,1-1S24.5,22.3,24,22.3z M19,26.3H9.1
			c-0.6,0-1,0.4-1,1c0,0.6,0.4,1,1,1H19c0.6,0,1-0.4,1-1C20,26.7,19.6,26.3,19,26.3z"/>
	</g>
</g>
<g>
	<g>
		<path  fill-rule="evenodd" clip-rule="evenodd" fill="#E84424" class="st1" d="M37.3,32.3c-0.1,0-0.3-0.1-0.4-0.1h-6V3.4c0-0.6-0.4-1-1-1H3.1c-0.6,0-1,0.4-1,1c0,0,0,22.2,0,30.3
			c0,2.5,2,4.5,4.5,4.5c0.1,0,0.2,0,0.3,0c0.1,0,0.1,0,0.2,0h25.9c0,0,0,0,0.1,0c0.1,0,0.3,0,0.4,0c2.5,0,4.5-2,4.5-4.5v-0.5
			C37.9,32.8,37.6,32.4,37.3,32.3z M9.7,32.3c-0.1,0-0.2,0.1-0.3,0.2c-0.2,0.2-0.3,0.4-0.3,0.7c0,0,0,0.1,0,0.5
			c0,1.4-1.1,2.5-2.5,2.5c-1.4,0-2.5-1.1-2.5-2.5V4.4h24.9v27.8H10.1C9.9,32.2,9.8,32.2,9.7,32.3z M33.4,36.2c-0.1,0-0.2,0-0.4,0
			c0,0-0.1,0-0.1,0H10.3c0.4-0.6,0.6-1.3,0.7-2h24.9C35.6,35.3,34.6,36.2,33.4,36.2z M17,12.1c-0.1-2.1-1.8-3.7-4-3.7
			c-2,0-3.7,1.5-3.9,3.5l-2.7,2.7C6,15,6,15.6,6.4,16L9.3,19c0.4,0.4,1.1,0.4,1.5,0l2.3-2.3l2.2,2.2c0.4,0.4,1,0.4,1.4,0l2.8-2.8
			c0.4-0.4,0.4-1,0-1.4C19.5,14.6,17,12.1,17,12.1z M10.1,16.8l-1.5-1.5l1-1c0.4,0.6,0.9,1.1,1.5,1.5C11.1,15.8,10.1,16.8,10.1,16.8
			z M13.2,14.3c-0.1,0-0.3,0-0.4,0c-0.9-0.1-1.6-0.8-1.7-1.7c0-0.1,0-0.3,0-0.4c0.1-1,0.9-1.8,2-1.8c1.1,0,2,0.9,2,2
			C15,13.4,14.2,14.2,13.2,14.3z M16,16.7l-1-1c0.6-0.3,1.1-0.8,1.4-1.4l1,1C17.4,15.3,16,16.7,16,16.7z"/>
	</g>
</g>
</svg>
