<?xml version="1.0" encoding="utf-8"?>
<!-- Generator: Adobe Illustrator 24.1.1, SVG Export Plug-In . SVG Version: 6.00 Build 0)  -->
<svg version="1.1" id="Calque_1" xmlns="http://www.w3.org/2000/svg" xmlns:xlink="http://www.w3.org/1999/xlink" x="0px" y="0px"
	 viewBox="0 0 40 40" style="enable-background:new 0 0 40 40;" xml:space="preserve">
<style type="text/css">
	.st0{display:none;}
	.st1{fill:#E84424;}
</style>

<path fill="#E84424" class="st1" d="M10.8,11.1v4.5c0,0.9,0.8,1.6,2,2.1v0.8l-2,2.7c-0.2,0.3-0.2,0.6,0.1,0.8c0.3,0.2,0.6,0.2,0.8-0.1l1.1-1.4v1
	c0,0.3,0.3,0.6,0.6,0.6s0.6-0.3,0.6-0.6v-1l1.1,1.4c0.1,0.2,0.3,0.2,0.5,0.2c0.5,0,0.8-0.6,0.5-1l-2-2.7v-0.3
	c5.6,1.7,15.8,0.7,15.8-2.6V9.5l2.1-0.9c0.5-0.2,0.8-0.7,0.8-1.2s-0.3-1-0.8-1.2l-1.3-0.6c-0.3-0.1-0.7,0-0.8,0.3s0,0.7,0.3,0.8
	l1.3,0.6c0.1,0,0.1,0.1,0.1,0.1c0,0,0,0.1-0.1,0.1l-11,4.8c-0.1,0-0.2,0-0.2,0c-3.5-1.5-2.3-1-5.4-2.4l4-1.8
	c1.4,0.9,3.8,0.2,3.8-1.3c0-0.9-1-1.6-2.3-1.6c-1.5,0-2.5,0.9-2.3,1.9l-4.7,2.2c-0.5-0.2-3.7-1.6-4.2-1.8c-0.2-0.1-0.2-0.2,0-0.3
	l11-4.8c0.1,0,0.2,0,0.2,0c5.4,2.4-0.3-0.2,7.5,3.3c0.3,0.1,0.7,0,0.8-0.3s0-0.7-0.3-0.8l-7.5-3.3c-0.4-0.2-0.8-0.2-1.2,0l-11,4.8
	c-1.1,0.5-1.1,2,0,2.5l2.1,0.9v0.4 M20.3,6.4c0.7,0,1.1,0.3,1.1,0.5s-0.4,0.5-1.1,0.5c-0.7,0-1.1-0.3-1.1-0.5
	C19.2,6.7,19.6,6.4,20.3,6.4z M12.8,16.3C12.2,16,12,15.7,12,15.5V10l0.8,0.3V16.3z M28.6,15.5c0,0.3-0.5,0.8-2.2,1.4
	c-3.3,1-8.9,1.1-12.4-0.1v-5.9c0.6,0.3-0.3-0.1,5.7,2.5c0.4,0.2,0.8,0.2,1.2,0l7.7-3.4L28.6,15.5C28.6,15.5,28.6,15.5,28.6,15.5z"/>
<g>
	<path fill="#E84424" class="st1" d="M26.2,30.6c0.5,0.9,0.8,1.8,0.8,2.9c0,1.2-0.3,2.3-0.9,3.1c-0.6,0.9-1.5,1.5-2.5,1.9c-1.1,0.4-2.2,0.7-3.5,0.7
		c-1.4,0-2.6-0.2-3.7-0.7c-1.1-0.5-1.9-1.1-2.4-2c-0.6-0.8-0.9-1.7-0.9-2.8h3.8c0.1,0.8,0.5,1.4,1.1,1.9c0.6,0.5,1.4,0.8,2.2,0.8
		c0.9,0,1.6-0.3,2.2-0.8c0.6-0.5,0.9-1.2,0.9-2.2c0-0.9-0.3-1.6-0.9-2.1c-0.6-0.6-1.4-0.8-2.3-0.8c-0.6,0-1.2,0.1-1.9,0.4
		c-0.6,0.3-1,0.7-1.3,1.3h-3.7l0.5-9.7h12.1v2.9h-8.7L17,29.2c1-0.9,2.3-1.3,3.8-1.3c1.2,0,2.2,0.2,3.2,0.7
		C25,29.1,25.7,29.8,26.2,30.6z"/>
</g>
</svg>
