<?xml version="1.0" encoding="utf-8"?>
<!-- Generator: Adobe Illustrator 24.1.1, SVG Export Plug-In . SVG Version: 6.00 Build 0)  -->
<svg version="1.1" id="Calque_1" xmlns="http://www.w3.org/2000/svg" xmlns:xlink="http://www.w3.org/1999/xlink" x="0px" y="0px"
	 viewBox="0 0 40 40" style="enable-background:new 0 0 40 40;" xml:space="preserve">
<style type="text/css">
	.st0{display:none;}
	.st1{fill:#FFFFFF;}
	.st2{fill:none;stroke:#E84424;stroke-width:1.4591;stroke-linecap:round;stroke-linejoin:round;}
</style>

<path fill="#ffffff" class="st1" d="M36.2,2.8H4.1c-0.8,0-1.5,0.7-1.5,1.5V29c0,0.8,0.7,1.5,1.5,1.5h18.6v7.3l4-3.6l4,3.6v-7.3h5.5
	c0.8,0,1.5-0.7,1.5-1.5V4.2C37.7,3.4,37,2.8,36.2,2.8z"/>
<path stroke="#E84424" fill="none"  stroke-width="1.4591" stroke-linecap="round" stroke-linejoin="round" class="st2" d="M2.7,9.7V4.2c0-0.8,0.7-1.5,1.5-1.5H26"/>
<path  stroke="#E84424" fill="none"  stroke-width="1.4591" stroke-linecap="round" stroke-linejoin="round"  class="st2" d="M30.8,28v2.5h5.5c0.8,0,1.5-0.7,1.5-1.5v-8.4"/>
<path  stroke="#E84424" fill="none"  stroke-width="1.4591" stroke-linecap="round" stroke-linejoin="round"  class="st2" d="M2.7,13.3V29c0,0.8,0.7,1.5,1.5,1.5h18.6V28"/>
<path  stroke="#E84424" fill="none"  stroke-width="1.4591" stroke-linecap="round" stroke-linejoin="round"  class="st2" d="M29.7,2.8h6.6c0.8,0,1.5,0.7,1.5,1.5V17"/>
<path  stroke="#E84424" fill="none"  stroke-width="1.4591" stroke-linecap="round" stroke-linejoin="round"  class="st2" d="M22.7,35.2v2.6l4-3.6l4,3.6V28c-0.2,0-0.3,0-0.5,0c-1.6,0-3,1-3.5,2.5c-0.5-1.5-2-2.5-3.5-2.5
	c-0.2,0-0.3,0-0.5,0v3.6"/>
<path  stroke="#E84424" fill="none"  stroke-width="1.4591" stroke-linecap="round" stroke-linejoin="round"  class="st2" d="M28.9,23.5c0-0.1,0-0.2,0-0.3c0-1.2-1-2.2-2.2-2.2s-2.2,1-2.2,2.2s1,2.2,2.2,2.2c0.1,0,0.2,0,0.3,0"/>
<line  stroke="#E84424" fill="none"  stroke-width="1.4591" stroke-linecap="round" stroke-linejoin="round"  class="st2" x1="32.6" y1="7.9" x2="15.8" y2="7.9"/>
<line  stroke="#E84424" fill="none"  stroke-width="1.4591" stroke-linecap="round" stroke-linejoin="round"  class="st2" x1="12.2" y1="7.9" x2="7.8" y2="7.9"/>
<line  stroke="#E84424" fill="none"  stroke-width="1.4591" stroke-linecap="round" stroke-linejoin="round"  class="st2" x1="32.6" y1="11.5" x2="26.7" y2="11.5"/>
<line  stroke="#E84424" fill="none"  stroke-width="1.4591" stroke-linecap="round" stroke-linejoin="round"  class="st2" x1="23.1" y1="11.5" x2="7.8" y2="11.5"/>
<line  stroke="#E84424" fill="none"  stroke-width="1.4591" stroke-linecap="round" stroke-linejoin="round"  class="st2" x1="7.8" y1="15.2" x2="19.5" y2="15.2"/>
<line  stroke="#E84424" fill="none"  stroke-width="1.4591" stroke-linecap="round" stroke-linejoin="round"  class="st2" x1="7.8" y1="18.8" x2="17.3" y2="18.8"/>
<line  stroke="#E84424" fill="none"  stroke-width="1.4591" stroke-linecap="round" stroke-linejoin="round"  class="st2" x1="7.8" y1="26.1" x2="14.3" y2="26.1"/>
<path  stroke="#E84424" fill="none" stroke-width="1.4591" stroke-linecap="round" stroke-linejoin="round"  class="st2" d="M23.7,18.4c-0.2,0-0.4,0-0.5,0c-0.6,0-1.1-0.1-1.6-0.4c0.9,1.9,0.1,4.1-1.8,5c-0.1,0.1-0.2,0.1-0.4,0.1
	c2,0.7,3,2.8,2.3,4.8c0,0.1-0.1,0.2-0.1,0.4c0.4-0.2,0.7-0.3,1.1-0.3c0.2,0,0.3,0,0.5,0c1.6,0,3,1,3.5,2.5c0.5-1.5,2-2.5,3.5-2.5
	c0.2,0,0.3,0,0.5,0c0.4,0.1,0.8,0.2,1.1,0.3c-0.9-1.9-0.1-4.1,1.8-5c0.1-0.1,0.2-0.1,0.4-0.1c-2-0.7-3-2.8-2.3-4.8
	c0-0.1,0.1-0.2,0.1-0.4c-1.9,0.9-4.1,0.1-5-1.8c-0.1-0.1-0.1-0.2-0.1-0.4c0,0.1-0.1,0.2-0.1,0.3l-0.1,0.1c0,0,0,0.1-0.1,0.1
	c-0.1,0.1-0.2,0.3-0.3,0.4c0,0,0,0.1-0.1,0.1c0,0,0,0-0.1,0.1"/>
</svg>
