<?xml version="1.0" encoding="utf-8"?>
<!-- Generator: Adobe Illustrator 24.1.1, SVG Export Plug-In . SVG Version: 6.00 Build 0)  -->
<svg version="1.1" id="Calque_1" xmlns="http://www.w3.org/2000/svg" xmlns:xlink="http://www.w3.org/1999/xlink" x="0px" y="0px"
	 viewBox="0 0 40 40" style="enable-background:new 0 0 40 40;" xml:space="preserve">
<style type="text/css">
	.st0{display:none;}
	.st1{fill:#E84424;}
</style>

<g>
	<path fill="#E84424" class="st1" d="M34.4,33.2l-3.5-3.5c1.6-2.8,1.3-6.3-0.9-8.8V9.7C30,8.8,29.2,8,28.3,8h-4.1V7.4c0-1.4-1.2-2.6-2.6-2.6h-0.6
		V4.2c0-1-0.8-1.9-1.9-1.9h-2.8c-1,0-1.9,0.8-1.9,1.9v0.6h-0.6c-1.4,0-2.6,1.2-2.6,2.6V8H7C6.1,8,5.3,8.8,5.3,9.7v26.6
		C5.3,37.3,6.1,38,7,38h18c0.3,0,0.5-0.2,0.5-0.5c0-0.3-0.2-0.5-0.5-0.5H7c-0.4,0-0.7-0.3-0.7-0.7V9.7C6.4,9.3,6.7,9,7,9h4.1v0.2
		c0,0.5,0.4,0.9,0.9,0.9h1.7c0.3,0,0.5-0.2,0.5-0.5S14,9.1,13.7,9.1h-1.6V7.4c0-0.9,0.7-1.6,1.6-1.6h7.8c0.9,0,1.6,0.7,1.6,1.6v1.6
		h-6.9c-0.3,0-0.5,0.2-0.5,0.5s0.2,0.5,0.5,0.5h7c0.5,0,0.9-0.4,0.9-0.9V9h4.1C28.7,9,29,9.3,29,9.7v10.1c-2.5-1.9-5.9-2.2-8.7-0.6
		c-0.2,0.1-0.3,0.5-0.2,0.7c0.1,0.2,0.5,0.3,0.7,0.2c2.6-1.5,5.9-1.1,8.1,1c2.6,2.6,2.6,6.8,0,9.4c-1.3,1.3-2.9,1.9-4.7,1.9
		c-1.8,0-3.4-0.7-4.7-1.9c-2.4-2.4-2.6-6.4-0.4-9c0.2-0.2,0.2-0.5-0.1-0.7c-0.2-0.2-0.5-0.2-0.7,0.1c-1.3,1.5-1.9,3.3-1.8,5.3
		c0.1,1.9,0.9,3.8,2.2,5.1c1.5,1.5,3.4,2.3,5.4,2.3c1.3,0,2.6-0.3,3.8-1l1,1v2.8c0,0.4-0.3,0.7-0.7,0.7h-0.7c-0.3,0-0.5,0.2-0.5,0.5
		c0,0.3,0.2,0.5,0.5,0.5h0.7c0.9,0,1.7-0.8,1.7-1.7v-1.7l1.5,1.5c0.2,0.2,0.5,0.3,0.8,0.3c0.3,0,0.6-0.1,0.8-0.3l1.3-1.3
		c0.2-0.2,0.4-0.5,0.4-0.8C34.8,33.7,34.7,33.4,34.4,33.2L34.4,33.2z M15.4,4.2c0-0.5,0.4-0.8,0.8-0.8H19c0.5,0,0.8,0.4,0.8,0.8v0.6
		h-4.4L15.4,4.2z M33.7,34.1l-1.3,1.3c-0.1,0.1-0.2,0.1-0.2,0L28.9,32c0.3-0.2,0.5-0.4,0.8-0.7c0.2-0.2,0.5-0.5,0.7-0.8l3.4,3.4
		C33.8,34,33.8,34.1,33.7,34.1z"/>
	<path fill="#E84424" class="st1" d="M22,14.4h4.4c0.3,0,0.5-0.2,0.5-0.5c0-0.3-0.2-0.5-0.5-0.5H22c-0.3,0-0.5,0.2-0.5,0.5
		C21.5,14.1,21.7,14.4,22,14.4z"/>
	<path fill="#E84424" class="st1" d="M9.1,14.4h9.7c0.3,0,0.5-0.2,0.5-0.5c0-0.3-0.2-0.5-0.5-0.5H9.1c-0.3,0-0.5,0.2-0.5,0.5
		C8.6,14.1,8.8,14.4,9.1,14.4z"/>
	<path fill="#E84424" class="st1" d="M9.1,16.5h9.7c0.3,0,0.5-0.2,0.5-0.5s-0.2-0.5-0.5-0.5H9.1c-0.3,0-0.5,0.2-0.5,0.5C8.6,16.3,8.8,16.5,9.1,16.5
		z"/>
	<path fill="#E84424" class="st1" d="M15.2,18.2c0-0.3-0.2-0.5-0.5-0.5H9.1c-0.3,0-0.5,0.2-0.5,0.5c0,0.3,0.2,0.5,0.5,0.5h5.6
		C15,18.8,15.2,18.5,15.2,18.2z"/>
	<path fill="#E84424" class="st1" d="M22,16.5h4.4c0.3,0,0.5-0.2,0.5-0.5s-0.2-0.5-0.5-0.5H22c-0.3,0-0.5,0.2-0.5,0.5C21.5,16.3,21.7,16.5,22,16.5z
		"/>
	<path fill="#E84424" class="st1" d="M10.9,23.3c-1.4,0-2.5,1.1-2.5,2.5c0,1.4,1.1,2.5,2.5,2.5c1.4,0,2.5-1.1,2.5-2.5
		C13.5,24.5,12.3,23.3,10.9,23.3z M10.9,27.4c-0.8,0-1.5-0.7-1.5-1.5c0-0.8,0.7-1.5,1.5-1.5s1.5,0.7,1.5,1.5
		C12.4,26.7,11.8,27.4,10.9,27.4z"/>
	<path fill="#E84424" class="st1" d="M10.9,30.4c-1.4,0-2.5,1.1-2.5,2.5c0,1.4,1.1,2.5,2.5,2.5c1.4,0,2.5-1.1,2.5-2.5
		C13.5,31.5,12.3,30.4,10.9,30.4z M10.9,34.4c-0.8,0-1.5-0.7-1.5-1.5s0.7-1.5,1.5-1.5s1.5,0.7,1.5,1.5S11.8,34.4,10.9,34.4z"/>
	<path fill="#E84424" class="st1" d="M15.2,33.4h2.4c0.3,0,0.5-0.2,0.5-0.5s-0.2-0.5-0.5-0.5h-2.4c-0.3,0-0.5,0.2-0.5,0.5S15,33.4,15.2,33.4z"/>
</g>
</svg>
