<?xml version="1.0" encoding="utf-8"?>
<!-- Generator: Adobe Illustrator 24.1.1, SVG Export Plug-In . SVG Version: 6.00 Build 0)  -->
<svg version="1.1" id="Capa_1" xmlns="http://www.w3.org/2000/svg" xmlns:xlink="http://www.w3.org/1999/xlink" x="0px" y="0px"
	 viewBox="0 0 512 512" style="enable-background:new 0 0 512 512;" xml:space="preserve">
<style type="text/css">
	.st0{fill:#333331;}
</style>
<g>
	<path fill="#333331" class="st0" d="M183.3,65.3V5.1H76.5l0,150.9C96.7,112.5,137.8,78.1,183.3,65.3z"/>
	<path fill="#333331" class="st0" d="M325.8,444.8V505h106.8l0-150.9C412.4,397.6,371.3,432,325.8,444.8z"/>
	<path fill="#333331" class="st0" d="M432.6,5H325.8v88.9l0,159.1c0,0.7,0,1.4,0,2c-0.7,23.8-13.1,44.7-31.6,57.1c-11.3,7.6-22.5,12.1-39.6,12.1
		c-10.5,0-23.7-1.1-39.6-7.5l0,109.1c10.7,4.6,28.8,5.2,39.6,5.2c13.6,0,26.9-1.5,39.6-4.4c11-2.5,21.5-6,31.6-10.5
		c62.3-27.3,106-89.2,106.8-161.2c0-0.7,0-1.4,0-2V146.5L432.6,5z"/>
	<path fill="#333331" class="st0" d="M254.6,185.8c10.5,0,23.7,1.1,39.6,7.5l0-109.1c-10.7-4.6-28.8-5.2-39.6-5.2c-13.6,0-26.9,1.5-39.6,4.4
		c-11,2.5-21.5,6-31.6,10.5c-62.3,27.3-106,89.2-106.8,161.2c0,0.7,0,1.4,0,2v106.5l0,141.1h106.8v-88.6l0-159.1c0-0.7,0-1.4,0-2
		c0.7-23.8,13.1-44.7,31.6-57.1C226.3,190.3,237.5,185.8,254.6,185.8z"/>
</g>
</svg>
