<?xml version="1.0" encoding="utf-8"?>
<!-- Generator: Adobe Illustrator 24.1.1, SVG Export Plug-In . SVG Version: 6.00 Build 0)  -->
<svg version="1.1" id="Calque_1" xmlns="http://www.w3.org/2000/svg" xmlns:xlink="http://www.w3.org/1999/xlink" x="0px" y="0px"
	 viewBox="0 0 40 40" style="enable-background:new 0 0 40 40;" xml:space="preserve">
<style type="text/css">
	.st0{display:none;}
	.st1{fill:#E84424;}
</style>

<g>
	<g>
		<g>
			<path fill="#E84424" class="st1" d="M6.4,4.3c0,0.2,0.1,0.5,0.2,0.7c0.3,0.4,0.7,0.6,1.1,0.8C8.1,6,8.6,6.2,9.1,6.4c0.3,0.1,0.5,0.2,0.8,0.3
				c0.2,0,0.3,0.1,0.5,0.2c0.1,0.1,0.2,0.1,0.3,0.3c0,0.1,0,0.2,0.1,0.3l0.8,5c0,0.2,0.1,0.3,0.1,0.5c0.1,0.4,0.3,0.5,0.5,0.6
				c0.3,0.1,0.6,0.2,1,0.2c0.3,0,0.6-0.2,0.6-0.5c0-0.1,0.1-0.3,0.1-0.3c0.1-1,0.2-2.1,0.3-3.1c0-0.4,0.1-0.8,0.2-1.1
				c0-0.1,0.1-0.1,0.1-0.2l2.2,0.6C16.7,9,16.9,9,17.2,9.1c0,0,0,0.1,0,0.1l0,0.3c0,0.2,0,0.5,0,0.7c0,0.3,0.2,0.5,0.5,0.7
				c0.1,0.1,0.3,0.1,0.5,0.2c0.3,0.1,0.6,0,0.7-0.3c0-0.1,0.1-0.1,0.1-0.2l0.3-0.7c0.4-0.8,0.7-1.7,1-2.6c0.1-0.1,0.1-0.2,0.1-0.3
				c0-0.1,0-0.3-0.2-0.5C20,6.1,19.7,6,19.4,6.1c-0.3,0-0.5,0.1-0.7,0.4l-0.2,0.2c-0.1,0.1-0.3,0.3-0.5,0.4c-0.8-0.3-1.6-0.7-2.4-1
				L15.3,6l0.1-0.1c0.2-0.3,0.3-0.6,0.5-0.8l2-2.5c0.1-0.1,0.2-0.3,0.3-0.4c0.2-0.2,0.2-0.5,0.1-0.7c-0.1-0.1-0.1-0.2-0.2-0.2
				C18,1.1,18,1.1,17.9,1.1c-0.4-0.3-0.7-0.3-1.1-0.2c-0.3,0.1-0.5,0.2-0.7,0.4l-3.5,2.7c-0.3,0.2-0.6,0.5-0.9,0.7
				c-0.1,0.1-0.3,0.1-0.4,0.1l-0.7-0.2c-0.5-0.2-1-0.4-1.5-0.6C8.7,3.7,8.3,3.6,8,3.6c-0.3,0-0.6,0-0.9,0.1C6.7,3.7,6.5,4,6.4,4.3z
				 M7.2,4.1C7.5,4,7.7,4,8,4c0.3,0,0.6,0.1,1,0.2c0.5,0.2,1,0.4,1.5,0.6L11.1,5c0.3,0.1,0.6,0.1,0.9-0.1s0.6-0.4,0.9-0.7l3.5-2.7
				c0.2-0.1,0.4-0.2,0.5-0.3c0.2,0,0.5,0,0.7,0.2c0,0,0.1,0.1,0.1,0.1c0.1,0.1,0.1,0.2,0,0.3c-0.1,0.1-0.2,0.3-0.3,0.4l-2,2.4
				c-0.2,0.3-0.4,0.6-0.6,0.9l-0.1,0.3l-0.2,0.4l0.9,0.4c0.8,0.3,1.6,0.7,2.4,1c0.2,0.1,0.3,0,0.4-0.1c0.2-0.2,0.3-0.3,0.5-0.5
				L19,6.9c0.1-0.1,0.3-0.2,0.5-0.2c0.2,0,0.3,0,0.4,0.2c0,0,0,0,0,0.1c0,0.1,0,0.1,0,0.2c-0.3,0.9-0.7,1.7-1,2.5l-0.3,0.7
				c0,0.1-0.1,0.1-0.1,0.2c0,0,0,0,0,0s0,0-0.1,0c-0.1,0-0.3-0.1-0.4-0.1c-0.1,0-0.1-0.1-0.2-0.2c0-0.2,0-0.5,0-0.7l0-0.3
				c0-0.1,0-0.1,0-0.2c0-0.1-0.1-0.3-0.2-0.3c-0.3-0.1-0.5-0.2-0.8-0.2l-2.3-0.7l-0.3-0.1L14,7.8c0,0,0,0.1-0.1,0.1
				c-0.1,0.1-0.1,0.2-0.1,0.3c-0.1,0.4-0.2,0.8-0.2,1.2c-0.1,1-0.2,2.1-0.3,3.1c0,0.1,0,0.2,0,0.3c0,0.1-0.1,0.1-0.1,0.1
				c-0.3,0-0.5-0.1-0.8-0.2c-0.1,0-0.1-0.1-0.2-0.3c0-0.2-0.1-0.3-0.1-0.5l-0.8-5c0-0.1-0.1-0.3-0.1-0.4c-0.1-0.3-0.3-0.5-0.6-0.6
				c-0.2,0-0.3-0.1-0.5-0.2C9.8,6,9.6,5.9,9.3,5.8C8.8,5.6,8.4,5.5,8,5.3C7.6,5.2,7.3,4.9,7.1,4.6C7,4.5,7,4.4,7,4.3
				C6.9,4.3,7,4.1,7.2,4.1z"/>
		</g>
	</g>
	<g>
		<g>
			<path fill="#E84424" class="st1" d="M20.3,9.4c-0.1,0.1,0,0.3,0.1,0.3l7.2,3.1c0.1,0.1,0.3,0,0.3-0.1c0-0.1,0-0.2,0-0.2c0,0-0.1-0.1-0.1-0.1
				l-7.2-3.1C20.5,9.2,20.4,9.3,20.3,9.4z"/>
		</g>
	</g>
	<g>
		<g>
			<path fill="#E84424" class="st1" d="M20.9,8.1c0,0.1,0,0.3,0.1,0.3l4.4,1.9c0.1,0.1,0.3,0,0.3-0.1c0-0.1,0-0.2,0-0.2c0,0-0.1-0.1-0.1-0.1L21.2,8
				C21.1,7.9,21,8,20.9,8.1z"/>
		</g>
	</g>
	<g>
		<g>
			<path fill="#E84424" class="st1" d="M26.1,10.3c-0.1,0.1,0,0.3,0.1,0.3l0.7,0.3c0.1,0.1,0.3,0,0.3-0.1c0-0.1,0-0.2,0-0.2c0,0-0.1-0.1-0.1-0.1
				l-0.7-0.3C26.3,10.1,26.1,10.2,26.1,10.3z"/>
		</g>
	</g>
	<g>
		<g>
			<path fill="#E84424" class="st1" d="M24.1,12.4c-0.1,0.1,0,0.3,0.1,0.3l0.7,0.3c0.1,0.1,0.3,0,0.3-0.1c0-0.1,0-0.2,0-0.2c0,0-0.1-0.1-0.1-0.1
				l-0.7-0.3C24.3,12.2,24.1,12.3,24.1,12.4z"/>
		</g>
	</g>
	<g>
		<g>
			<path fill="#E84424" class="st1" d="M19.9,10.6c-0.1,0.1,0,0.3,0.1,0.3l3.5,1.5c0.1,0.1,0.3,0,0.3-0.1c0-0.1,0-0.2,0-0.2c0,0-0.1-0.1-0.1-0.1
				l-3.5-1.5C20.1,10.4,19.9,10.5,19.9,10.6z"/>
		</g>
	</g>
</g>
<g>
	<g>
		<path fill="#E84424" class="st1" d="M26.4,36.9c-0.1-0.2-0.5-0.3-0.7-0.2l0,0c-0.2,0.1-0.3,0.5-0.2,0.7c0.1,0.2,0.3,0.3,0.4,0.3
			c0.1,0,0.2,0,0.3-0.1l0,0C26.4,37.5,26.5,37.2,26.4,36.9z"/>
	</g>
</g>
<g>
	<g>
		<path fill="#E84424" class="st1" d="M31,19.7c-1.8-3-4.6-5.2-8-6.1s-6.9-0.4-10,1.3s-5.2,4.6-6.1,8s-0.4,6.9,1.3,10c1.6,2.7,4.1,4.8,7,5.8
			c1.4,0.5,2.9,0.7,4.3,0.7c1.6,0,3.2-0.3,4.7-0.9c0.3-0.1,0.4-0.4,0.3-0.7c-0.1-0.3-0.4-0.4-0.7-0.3c-4,1.5-8.3,0.8-11.6-1.6
			l0.5-2.4l0.2-0.1c0.8-0.3,1.3-1.2,1-2L13.9,31c0-0.1,0-0.2,0-0.4c0.1-0.4,0.1-0.9-0.1-1.3c-0.2-0.4-0.6-0.7-1.1-0.8l-1.2-0.2
			l-2.2-1.7c-0.1-0.1-0.3-0.1-0.5-0.1L7.5,27c0-0.5,0-0.9,0-1.4c0.1,0.1,0.1,0.1,0.1,0.1c0,0,0.1,0.1,0.1,0.1
			c0.1,0.1,0.2,0.1,0.4,0.1c0.2,0,0.5,0,0.9-0.1c0.4-0.1,0.9-0.1,0.9-0.1c0.2,0,0.3-0.1,0.4-0.3c0.1-0.2,0.1-0.3-0.1-0.5L9.6,24
			l0.9-0.6c0.1,0,0.1-0.1,0.1-0.2l1.4-2.4l0.6-0.6c0.6-0.6,0.7-1.5,0.4-2.3c-0.2-0.5-0.5-0.8-0.9-1.1c0.4-0.3,0.9-0.7,1.4-1
			c1.9-1.1,3.9-1.6,5.9-1.6l-0.9,1.2l-3.4,1.2c-0.1,0.1-0.3,0.2-0.3,0.3l-1,2.3c-0.1,0.2,0,0.3,0.1,0.5l1.4,1.9
			c-0.2,0.2-0.4,0.4-0.6,0.8c-0.1,0.1-0.2,0.3-0.3,0.4c-0.1,0.1-0.1,0.1-0.2,0.2c-0.3,0.3-0.6,0.7-0.8,1.1c-0.5,1-0.4,2.2,0.3,3.1
			c0.6,0.9,1.6,1.3,2.7,1.2c0.2,0,0.3-0.1,0.5-0.1c0.4-0.1,0.6-0.1,0.7,0c0.1,0.1,0.1,0.1,0.1,0.3c0,0.1,0,0.3,0,0.5
			c0.1,0.3,0.3,0.5,0.4,0.7c0.1,0.1,0.2,0.2,0.2,0.2c0.2,0.4,0.1,0.6-0.1,1.1c0,0,0,0.1,0,0.1c-0.2,0.7,0.1,1.4,0.4,2.1
			c0.1,0.2,0.2,0.4,0.2,0.6c0.5,1.4,0.8,1.7,1.1,1.8c0.1,0.1,0.3,0.1,0.4,0.1c0.7,0,1.5-0.7,1.9-1.1c0.2-0.3,0.3-0.5,0.3-0.8
			c0-0.1,0-0.2,0.1-0.2c0-0.1,0.1-0.1,0.2-0.2c0.1-0.2,0.3-0.3,0.4-0.7c0.1-0.3,0.1-0.3,0.3-0.5c0,0,0.1-0.1,0.1-0.1
			c0.7-0.7,0.5-1.3,0.3-1.9c-0.2-0.5,0.1-0.8,0.8-1.4c0.3-0.3,0.6-0.5,0.8-0.9c0.1-0.1,0.4-0.6,0.2-1c-0.2-0.4-0.7-0.5-1-0.6
			c-0.1,0-0.4-0.1-0.4-0.1c-0.3-0.2-0.5-0.6-0.7-1.1c0-0.1-0.1-0.2-0.1-0.2c-0.1-0.1-0.1-0.3-0.2-0.5c-0.2-0.5-0.4-1-0.8-1.4
			c-0.3-0.3-0.9-0.5-1.5-0.7C21,22,20.8,22,20.7,22c-0.1,0-0.2,0-0.3,0c-0.3,0.1-0.4,0.1-0.5,0.2c0,0-0.1,0.1-0.2,0.2
			c-0.2-0.1-0.4-0.3-0.6-0.4c0,0,0,0,0,0c0.1-0.2,0-0.4,0-0.5c-0.3-0.6-1.2-0.6-1.4-0.5c-0.1,0-0.2,0-0.4,0c-0.2,0-0.5,0-0.7,0l0,0
			c0.2-0.5,0.7-0.9,1.2-0.9H18c0.3,0,0.5-0.2,0.5-0.5s-0.2-0.5-0.5-0.5h-0.3c-0.8,0-1.6,0.4-2,1.1L15,19.1l0.8-1.8l3.3-1.2
			c0.1,0,0.2-0.1,0.2-0.2l1.5-1.8c3.8,0.4,7.3,2.5,9.4,6c0.5,0.9,0.9,1.9,1.2,2.9l-0.2,0.2c-0.3,0.3-0.5,0.6-0.5,1v0l-0.3-0.9
			c-0.1-0.1-0.1-0.3-0.2-0.4l-0.6-0.7c-0.2-0.3-0.6-0.5-1-0.5h-0.8c-0.3,0-0.5,0.1-0.7,0.4c-0.1,0.2-0.1,0.5,0,0.8l0.1,0.1
			c-0.5,0.4-1.1,0.8-1.7,1l-1.1-2v-0.4c0-0.1-0.1-0.3-0.2-0.4l-1-0.9c-0.1-0.1-0.1-0.1-0.2-0.1l-0.9-0.3c-0.3-0.1-0.6,0-0.7,0.3
			c-0.1,0.3,0,0.6,0.3,0.7l0.8,0.3l0.7,0.7v0.4c0,0.1,0,0.2,0.1,0.2l1.3,2.5c0.1,0.2,0.4,0.3,0.6,0.2l0.4-0.1
			c0.9-0.3,1.7-0.9,2.4-1.5c0.2-0.2,0.2-0.4,0.1-0.6l0,0h0.2c0.1,0,0.1,0,0.2,0.1l0.6,0.7c0,0,0,0.1,0,0.1l0.7,1.9
			c0.1,0.2,0.2,0.3,0.4,0.3c0,0,0.1,0,0.1,0c0.1,0,0.3-0.1,0.4-0.1l0.3-0.3c0.2-0.2,0.4-0.5,0.4-0.8c0.5,4.1-1.1,8.4-4.5,11.1
			c-0.2,0.2-0.3,0.5-0.1,0.7c0.2,0.2,0.5,0.3,0.7,0.1c2.5-1.9,4.2-4.7,4.8-7.8C33.1,25.6,32.6,22.4,31,19.7z M8.9,27.6l2.1,1.6
			c0.1,0.1,0.1,0.1,0.2,0.1l1.3,0.3c0.2,0,0.3,0.1,0.4,0.3c0.1,0.1,0.1,0.3,0.1,0.5c-0.1,0.3-0.1,0.7,0,1l0.2,0.5
			c0.1,0.3-0.1,0.6-0.4,0.7l-0.5,0.2c-0.2,0.1-0.3,0.2-0.3,0.4l-0.4,2.1c-0.9-0.8-1.7-1.8-2.3-2.9c-0.8-1.4-1.3-2.8-1.5-4.3
			L8.9,27.6z M11.9,19.4l-0.6,0.6c0,0-0.1,0.1-0.1,0.1l-1.4,2.4l-1.2,0.9c-0.2,0.2-0.3,0.5-0.1,0.7l0.5,0.7c-0.3,0-0.5,0.1-0.7,0.1
			c0,0-0.1-0.1-0.1-0.1c-0.1-0.1-0.3-0.3-0.5-0.5c0.4-2.6,1.7-5,3.6-6.9c0.4,0.1,0.7,0.4,0.8,0.8C12.3,18.6,12.2,19.1,11.9,19.4z
			 M16.1,22.2c0.2-0.1,0.8-0.1,1.2-0.2c0.2,0,0.3,0,0.4,0c0.1,0,0.1,0,0.2,0c0,0.1,0,0.2,0,0.3c0,0.2,0.1,0.3,0.3,0.4
			c0.1,0.1,0.2,0.1,0.4,0.2c0.4,0.3,0.9,0.6,1.3,0.6c0.4,0,0.6-0.2,0.7-0.3c0,0,0,0,0,0c0.1,0,0.1-0.1,0.1-0.2c0.1,0,0.2,0,0.3,0.1
			c0.3,0.1,0.9,0.2,1,0.4c0.2,0.2,0.4,0.7,0.5,1.1c0.1,0.2,0.1,0.4,0.2,0.6c0,0.1,0.1,0.1,0.1,0.2c0.2,0.5,0.5,1.1,1.1,1.5
			c0.3,0.2,0.6,0.2,0.9,0.3c0,0,0.1,0,0.1,0c-0.2,0.2-0.4,0.5-0.7,0.7c-0.6,0.6-1.4,1.3-1.1,2.5c0.2,0.6,0.2,0.6-0.1,0.9
			c0,0-0.1,0.1-0.1,0.1c-0.2,0.3-0.4,0.5-0.6,0.9c0,0.1-0.1,0.2-0.2,0.3c-0.1,0.1-0.2,0.2-0.3,0.4c-0.1,0.2-0.2,0.4-0.2,0.5
			c0,0.1-0.1,0.2-0.1,0.3c-0.1,0.2-0.4,0.4-0.6,0.6c-0.2,0.1-0.4,0.2-0.4,0.2c-0.1-0.1-0.3-0.3-0.5-1.2c-0.1-0.2-0.2-0.4-0.3-0.7
			c-0.2-0.5-0.4-1-0.3-1.3c0,0,0-0.1,0-0.1c0.2-0.5,0.3-1,0-1.8c-0.1-0.2-0.2-0.4-0.4-0.5c-0.1-0.1-0.2-0.2-0.2-0.3
			c0-0.1,0-0.2,0-0.3c0-0.3,0-0.7-0.4-1c-0.6-0.5-1.2-0.4-1.7-0.3c-0.1,0-0.3,0.1-0.4,0.1c-0.7,0.1-1.4-0.2-1.8-0.8
			c-0.4-0.6-0.5-1.4-0.2-2.1c0.2-0.3,0.4-0.6,0.7-0.9c0.1-0.1,0.1-0.1,0.2-0.2c0.1-0.1,0.2-0.3,0.3-0.4C15.7,22.7,16,22.3,16.1,22.2
			z"/>
	</g>
</g>
<g>
	<g>
		<path fill="#E84424" class="st1" d="M27.5,30.8l-0.2-0.9c-0.1-0.2-0.2-0.3-0.4-0.4c-0.2,0-0.4,0.1-0.5,0.3c-0.1,0.1-0.1,0.2-0.2,0.3
			c-0.1,0.2-0.2,0.4-0.3,0.5c-0.1,0.1-0.2,0.1-0.3,0.2c-0.3,0.1-0.7,0.3-0.9,0.8c-0.1,0.3-0.1,0.5,0,0.7c0,0.1,0,0.2,0,0.3v0
			c-0.2,0.4-0.5,1.1,0,1.7c0.3,0.4,0.6,0.5,0.9,0.5c0.1,0,0.1,0,0.1,0c0.5-0.1,0.9-0.6,1.2-1.7l0.6-2C27.5,30.9,27.5,30.8,27.5,30.8
			z M25.9,32.8c-0.2,0.5-0.3,0.8-0.4,0.9c0,0,0,0,0,0c-0.1-0.1,0.1-0.5,0.1-0.7v0c0.2-0.4,0.1-0.6,0.1-0.9c0-0.1,0-0.2,0-0.3
			c0-0.1,0.1-0.1,0.3-0.2c0.1,0,0.2-0.1,0.3-0.1L25.9,32.8z"/>
	</g>
</g>
<g>
	<g>
		<path fill="#E84424" class="st1" d="M20.3,19.2L20.3,19.2c-0.3-0.1-0.6,0-0.7,0.3c-0.1,0.3,0,0.6,0.3,0.7l0,0c0.1,0,0.1,0,0.2,0
			c0.2,0,0.4-0.1,0.5-0.3C20.7,19.6,20.6,19.3,20.3,19.2z"/>
	</g>
</g>
</svg>
