<?xml version="1.0" encoding="utf-8"?>
<!-- Generator: Adobe Illustrator 24.1.1, SVG Export Plug-In . SVG Version: 6.00 Build 0)  -->
<svg version="1.1" id="Calque_1" xmlns="http://www.w3.org/2000/svg" xmlns:xlink="http://www.w3.org/1999/xlink" x="0px" y="0px"
	 viewBox="0 0 40 40" style="enable-background:new 0 0 40 40;" xml:space="preserve">
<style type="text/css">
	.st0{display:none;}
	.st1{fill:#E84424;}
	.st2{fill:#FFFFFF;stroke:#FFFFFF;stroke-width:0.6035;stroke-miterlimit:10;}
	.st3{fill:none;stroke:#E84424;stroke-width:0.9806;stroke-miterlimit:10;}
</style>

<path fill="#E84424" class="st1" d="M2.8,10.1h1.1v4.8H2.8V10.1z"/>
<path fill="#E84424" class="st1" d="M2.8,16.1h1.1v1.2H2.8V16.1z"/>
<path fill="#E84424" class="st1" d="M30,19.4c-0.4,0.1-0.8,0.2-1.3,0.4V5.5l-7.2,3.9l-6.6-3.6L8.2,9.4L1,5.5V31l7.2,3.9l6.7-3.6l6.7,3.6l4.6-2.5
	c1.4,1.5,3.4,2.4,5.7,2.4c4.3,0,7.8-3.5,7.8-7.8c0-3.7-2.6-6.8-6.1-7.6 M2.1,7.4l5.5,3v10.8l-5.5-3V7.4z M14.3,30.3l-5.5,3v-5.1H7.6
	v5.1l-5.5-3V19.5l5.5,3V27h1.1v-4.5l5.5-3L14.3,30.3L14.3,30.3z M14.3,18.2l-5.5,3V10.4l5.5-3V18.2z M20.9,33.3l-5.5-3V19.5l5.5,3
	V33.3z M20.9,16.7v4.5l-5.5-3V7.4l5.5,3v5.1H22v-5.1l5.5-3v10.8l-5.5,3v-4.5L20.9,16.7L20.9,16.7z M22,33.3V22.5l5.5-3v0.9
	c-2.1,1.4-3.6,3.8-3.6,6.6c0,1.7,0.5,3.2,1.4,4.5L22,33.3z M31.8,33.7c-3.7,0-6.7-3-6.7-6.7s3-6.7,6.7-6.7s6.7,3,6.7,6.7
	S35.5,33.7,31.8,33.7z"/>
<path fill="#E84424"  class="st1" d="M31.7,21.4c-3.1,0-5.6,2.5-5.6,5.6s2.5,5.6,5.6,5.6s5.6-2.5,5.6-5.6S34.8,21.4,31.7,21.4z M31.8,31.9
	c-2.7,0-4.9-2.2-4.9-4.9s2.2-4.9,4.9-4.9s4.9,2.2,4.9,4.9S34.5,31.9,31.8,31.9z"/>
<path fill="#E84424" class="st1" d="M30.9,25.5L30.9,25.5l-0.6,0.6l0,0l-1.2,3.5l3.5-1.2l0,0l0.6-0.6l0,0l1.2-3.5L30.9,25.5z M30.6,28.2l0.5-1.4
	l0.9,0.9L30.6,28.2z M32.6,27.1l-0.9-0.9l1.4-0.5L32.6,27.1z"/>
<rect fill="#E84424" x="31.7" y="21.9" class="st1" width="0.3" height="1"/>
<rect fill="#E84424" x="31.7" y="30.9" class="st1" width="0.3" height="1"/>
<rect fill="#E84424" x="26.8" y="26.8" class="st1" width="1" height="0.3"/>
<rect fill="#E84424" x="35.8" y="26.8" class="st1" width="1" height="0.3"/>
<circle fill="#FFFFFF" stroke="#FFFFFF" stroke-width="0.6035" stroke-miterlimit="10" class="st2" cx="35.5" cy="23.5" r="0.7"/>
<circle fill="#E84424" class="st1" cx="35.5" cy="23.5" r="0.6"/>
<circle fill="none" stroke="#E84424" stroke-width="0.9806" stroke-miterlimit="10" class="st3" cx="31.8" cy="18.1" r="1.7"/>
</svg>
