<?xml version="1.0" encoding="utf-8"?>
<!-- Generator: Adobe Illustrator 24.1.1, SVG Export Plug-In . SVG Version: 6.00 Build 0)  -->
<svg version="1.1" id="Calque_1" xmlns="http://www.w3.org/2000/svg" xmlns:xlink="http://www.w3.org/1999/xlink" x="0px" y="0px"
	 viewBox="0 0 40 40" style="enable-background:new 0 0 40 40;" xml:space="preserve">
<style type="text/css">
	.st0{display:none;}
	.st1{fill:#E84424;}
	.st2{fill:none;stroke:#E84424;stroke-width:1.7272;stroke-miterlimit:10;}
</style>


<g>
	<g>
		<g>
			<path fill="#E84424" class="st1" d="M3,10.5c0,0.4,0.1,0.7,0.3,1c0.5,0.6,1,1,1.7,1.3c0.6,0.2,1.3,0.5,2.1,0.8C7.6,13.7,8,13.8,8.4,14
				c0.3,0.1,0.5,0.2,0.8,0.2c0.2,0.1,0.4,0.2,0.5,0.4c0,0.1,0.1,0.3,0.1,0.4l1.3,7.5c0,0.2,0.1,0.5,0.2,0.7c0.1,0.5,0.5,0.8,0.8,0.9
				c0.5,0.2,1,0.3,1.5,0.3c0.5,0,0.9-0.3,1-0.8c0.1-0.2,0.1-0.4,0.1-0.5c0.2-1.6,0.3-3.2,0.4-4.7c0-0.6,0.1-1.2,0.3-1.7
				c0.1-0.1,0.1-0.2,0.2-0.4l3.4,1c0.4,0.1,0.7,0.2,1.1,0.3c0,0,0,0.1,0,0.1l0,0.5c0,0.4,0,0.7,0.1,1.1c0,0.5,0.3,0.8,0.8,1
				c0.2,0.1,0.5,0.2,0.8,0.2c0.5,0.1,0.9,0,1.1-0.5c0.1-0.1,0.1-0.2,0.1-0.3l0.5-1.1c0.6-1.3,1.1-2.6,1.6-3.9
				c0.1-0.2,0.1-0.3,0.1-0.5c0-0.2,0-0.5-0.3-0.8c-0.4-0.3-0.8-0.5-1.3-0.4c-0.4,0.1-0.8,0.2-1.2,0.6L22,14
				c-0.2,0.2-0.5,0.4-0.7,0.7c-1.3-0.5-2.5-1-3.7-1.5L17,13l0.1-0.2c0.3-0.4,0.5-0.9,0.8-1.2l3.2-3.8c0.2-0.2,0.4-0.4,0.5-0.6
				c0.3-0.4,0.3-0.7,0.1-1.1c-0.1-0.1-0.2-0.2-0.3-0.3c-0.1-0.1-0.2-0.2-0.3-0.2c-0.6-0.4-1.2-0.5-1.8-0.4c-0.5,0.1-0.8,0.4-1.1,0.6
				l-5.6,4.1c-0.5,0.3-0.9,0.7-1.4,1C11.1,11,11,11,10.7,10.9l-1-0.4C8.9,10.3,8.1,10,7.3,9.7C6.6,9.5,6,9.4,5.4,9.3
				C5,9.3,4.5,9.3,4,9.4C3.4,9.5,3,9.9,3,10.5z M4.2,10.1C4.6,10,5,10,5.4,10.1c0.5,0,1,0.1,1.6,0.3c0.8,0.3,1.6,0.6,2.4,0.9l1,0.3
				c0.5,0.2,1,0.2,1.5-0.2c0.5-0.3,0.9-0.7,1.4-1l5.6-4.1c0.3-0.2,0.6-0.4,0.8-0.4c0.4-0.1,0.7,0,1.1,0.2c0.1,0,0.2,0.1,0.2,0.2
				c0.2,0.2,0.2,0.2,0.1,0.4c-0.2,0.2-0.3,0.4-0.5,0.6L17.3,11c-0.3,0.4-0.6,0.9-0.9,1.3l-0.2,0.4l-0.3,0.5l1.4,0.6
				c1.3,0.5,2.6,1,3.9,1.5c0.3,0.1,0.5,0,0.6-0.1c0.3-0.2,0.5-0.5,0.8-0.7l0.3-0.3c0.2-0.2,0.5-0.4,0.8-0.4c0.3,0,0.5,0,0.7,0.2
				c0,0,0,0.1,0,0.2c0,0.1,0,0.2-0.1,0.3c-0.5,1.3-1.1,2.6-1.7,3.8l-0.5,1.1c0,0.1-0.1,0.2-0.2,0.3c0,0,0,0.1,0,0.1s0,0-0.1,0
				c-0.2-0.1-0.5-0.1-0.7-0.2c-0.2,0-0.2-0.2-0.3-0.4c0-0.4-0.1-0.7-0.1-1.1l0-0.5c0-0.1,0-0.2,0-0.3c0-0.2-0.2-0.4-0.4-0.5
				c-0.4-0.1-0.8-0.2-1.3-0.4l-3.6-1.1l-0.4-0.1l-0.2,0.3c0,0.1-0.1,0.1-0.1,0.2c-0.1,0.2-0.2,0.3-0.2,0.5c-0.2,0.6-0.3,1.2-0.3,1.9
				c-0.1,1.6-0.3,3.2-0.4,4.7c0,0.1,0,0.3-0.1,0.4c0,0.2-0.1,0.2-0.2,0.1c-0.4,0-0.9-0.1-1.3-0.3c-0.1,0-0.2-0.1-0.3-0.4
				c-0.1-0.3-0.1-0.5-0.2-0.7l-1.3-7.5c0-0.2-0.1-0.4-0.1-0.5c-0.2-0.4-0.5-0.7-0.9-0.9c-0.3-0.1-0.5-0.2-0.8-0.2
				C8.4,13,8,12.9,7.6,12.7c-0.8-0.3-1.5-0.5-2.1-0.8c-0.5-0.2-1-0.6-1.4-1c-0.1-0.1-0.2-0.3-0.2-0.5C3.8,10.4,4,10.2,4.2,10.1z"/>
		</g>
	</g>
	<g>
		<g>
			<path fill="#E84424" class="st1" d="M24.9,18.2c-0.1,0.2,0,0.4,0.2,0.5l11.4,4.6c0.2,0.1,0.5,0,0.5-0.2c0.1-0.1,0-0.2,0-0.3
				c0-0.1-0.1-0.1-0.2-0.2L25.4,18C25.3,17.9,25,18,24.9,18.2z"/>
		</g>
	</g>
	<g>
		<g>
			<path fill="#E84424" class="st1" d="M25.9,16.2c-0.1,0.2,0,0.4,0.2,0.5l7,2.8c0.2,0.1,0.5,0,0.5-0.2c0.1-0.1,0-0.2,0-0.3c0-0.1-0.1-0.1-0.2-0.2
				l-7-2.8C26.2,15.9,26,16,25.9,16.2z"/>
		</g>
	</g>
	<g>
		<g>
			<path fill="#E84424" class="st1" d="M34.1,19.5c-0.1,0.2,0,0.4,0.2,0.5l1.2,0.5c0.2,0.1,0.5,0,0.5-0.2c0.1-0.1,0-0.2,0-0.3
				c0-0.1-0.1-0.1-0.2-0.2l-1.2-0.5C34.4,19.3,34.2,19.3,34.1,19.5z"/>
		</g>
	</g>
	<g>
		<g>
			<path fill="#E84424" class="st1" d="M30.9,22.7c-0.1,0.2,0,0.4,0.2,0.5l1.2,0.5c0.2,0.1,0.5,0,0.5-0.2c0.1-0.1,0-0.2,0-0.3
				c0-0.1-0.1-0.1-0.2-0.2l-1.2-0.5C31.2,22.5,30.9,22.6,30.9,22.7z"/>
		</g>
	</g>
	<g>
		<g>
			<path fill="#E84424" class="st1" d="M24.2,20c-0.1,0.2,0,0.4,0.2,0.5l5.5,2.2c0.2,0.1,0.5,0,0.5-0.2c0-0.1,0-0.2,0-0.3c0-0.1-0.1-0.1-0.2-0.2
				l-5.5-2.2C24.6,19.7,24.3,19.8,24.2,20z"/>
		</g>
	</g>
</g>
<path fill="none" stroke="#E84424" stroke-width="1.7272" stroke-miterlimit="10" class="st2" d="M37.9,35.2c-5.2-6-13.3-9.2-21.7-8c-5.5,0.8-10.3,3.4-13.9,7.2"/>
</svg>
