<?xml version="1.0" encoding="utf-8"?>
<!-- Generator: Adobe Illustrator 24.1.1, SVG Export Plug-In . SVG Version: 6.00 Build 0)  -->
<svg version="1.1" id="Calque_1" xmlns="http://www.w3.org/2000/svg" xmlns:xlink="http://www.w3.org/1999/xlink" x="0px" y="0px"
	 viewBox="0 0 40 40" style="enable-background:new 0 0 40 40;" xml:space="preserve">
<style type="text/css">
	.st0{display:none;}
	.st1{fill:none;stroke:#000000;stroke-miterlimit:10;}
	.st2{fill:none;stroke:#E84424;stroke-miterlimit:10;}
	.st3{fill:#E84424;}
	.st4{fill:#FFFFFF;stroke:#000000;stroke-width:0.7025;stroke-miterlimit:10;}
	.st5{fill:#FFFFFF;stroke:#000000;stroke-width:0.5983;stroke-miterlimit:10;}
	.st6{fill:#FFFFFF;}
	.st7{fill:none;stroke:#E84424;stroke-width:0.3189;stroke-miterlimit:10;}
</style>

<path fill="none" stroke="#000000" stroke-miterlimit="10" class="st1" d="M23,28.1"/>
<path fill="none" stroke="#E84424" stroke-miterlimit="10" class="st2" d="M23,6.9V4.7c0-0.9-0.7-1.6-1.6-1.6h-18c-0.9,0-1.6,0.7-1.6,1.6v26.2c0,0.9,0.7,1.6,1.6,1.6h6.1"/>
<rect fill="#E84424" x="3.6" y="6.1" class="st3" width="11.9" height="1.1"/>
<rect fill="#E84424" x="3.6" y="8.1" class="st3" width="9.5" height="1.1"/>
<rect fill="#E84424" x="3.6" y="10.1" class="st3" width="7.5" height="1.1"/>
<rect fill="#E84424" x="3.6" y="12.1" class="st3" width="9.5" height="1.1"/>
<path fill="none" stroke="#E84424" stroke-miterlimit="10" class="st2" d="M35.1,8.7H20.9c-1.4,0-2.6,1.2-2.6,2.6v6.3c0,1.4,1.2,2.6,2.6,2.6h10.8l1.3,2.6l1.3-2.6h0.8
	c1.4,0,2.6-1.2,2.6-2.6v-6.3C37.7,9.9,36.6,8.7,35.1,8.7z"/>
<path fill="#FFFFFF" stroke="#000000" stroke-width="0.7025" stroke-miterlimit="10" class="st4" d="M32.9,19.9"/>
<path fill="#FFFFFF" stroke="#000000" stroke-width="0.5983" stroke-miterlimit="10" class="st5" d="M19.6,32.1"/>
<rect x="18.4" y="35.1" fill="#ffffff" class="st6" width="1.6" height="0.4"/>
<g>
	<path fill="#E84424" class="st3" d="M25.7,15.7c-0.4,0-0.7-0.3-0.7-0.7c0-0.4,0.3-0.7,0.7-0.7c0.4,0,0.7,0.3,0.7,0.7
		C26.4,15.4,26.1,15.7,25.7,15.7L25.7,15.7z"/>
	<path fill="#E84424" class="st3" d="M28,15.7c-0.4,0-0.7-0.3-0.7-0.7c0-0.4,0.3-0.7,0.7-0.7s0.7,0.3,0.7,0.7C28.7,15.4,28.5,15.7,28,15.7L28,15.7z
		"/>
	<path fill="#E84424" class="st3" d="M30.4,15.7c-0.4,0-0.7-0.3-0.7-0.7c0-0.4,0.3-0.7,0.7-0.7c0.4,0,0.7,0.3,0.7,0.7
		C31.1,15.4,30.8,15.7,30.4,15.7L30.4,15.7z"/>
</g>
<circle fill="#E84424" class="st3" cx="4.9" cy="20.4" r="0.6"/>
<circle fill="#E84424" class="st3" cx="7.2" cy="16.8" r="0.6"/>
<circle fill="#E84424" class="st3" cx="10.9" cy="19.2" r="0.6"/>
<line fill="none" stroke="#E84424" stroke-width="0.3189" stroke-miterlimit="10" class="st7" x1="4.9" y1="20.4" x2="7.2" y2="16.8"/>
<line fill="none" stroke="#E84424" stroke-width="0.3189" stroke-miterlimit="10" class="st7" x1="7.2" y1="16.8" x2="10.9" y2="19.2"/>
<circle fill="#E84424" class="st3" cx="12.6" cy="16" r="0.6"/>
<line fill="none" stroke="#E84424" stroke-width="0.3189" stroke-miterlimit="10" class="st7" x1="10.9" y1="19.2" x2="12.6" y2="16"/>
<path fill="none" stroke="#E84424" stroke-miterlimit="10" class="st2" d="M14.6,21.9h14.2c1.4,0,2.6,1.2,2.6,2.6v6.3c0,1.4-1.2,2.6-2.6,2.6H17.9L16.6,36l-1.3-2.6h-0.8
	c-1.4,0-2.6-1.2-2.6-2.6v-6.3C12,23.1,13.1,21.9,14.6,21.9z"/>
<g>
	<path fill="#E84424" class="st3" d="M24,29c-0.4,0-0.7-0.3-0.7-0.7c0-0.4,0.3-0.7,0.7-0.7c0.4,0,0.7,0.3,0.7,0.7C24.7,28.6,24.4,29,24,29L24,29z"
		/>
	<path fill="#E84424" class="st3" d="M21.7,29c-0.4,0-0.7-0.3-0.7-0.7c0-0.4,0.3-0.7,0.7-0.7c0.4,0,0.7,0.3,0.7,0.7C22.3,28.6,22.1,29,21.7,29
		L21.7,29z"/>
	<path fill="#E84424" class="st3" d="M19.3,29c-0.4,0-0.7-0.3-0.7-0.7c0-0.4,0.3-0.7,0.7-0.7c0.4,0,0.7,0.3,0.7,0.7C20,28.6,19.7,29,19.3,29
		L19.3,29z"/>
</g>
</svg>
