<?xml version="1.0" encoding="utf-8"?>
<!-- Generator: Adobe Illustrator 24.1.1, SVG Export Plug-In . SVG Version: 6.00 Build 0)  -->
<svg version="1.1" id="Calque_1" xmlns="http://www.w3.org/2000/svg" xmlns:xlink="http://www.w3.org/1999/xlink" x="0px" y="0px"
	 viewBox="0 0 40 40" style="enable-background:new 0 0 40 40;" xml:space="preserve">
<style type="text/css">
	.st0{display:none;}
	.st1{fill:#E84424;}
</style>

<path fill="#E84424" class="st1" d="M16.8,34.1l-0.1,0.5L16.8,34.1c-0.3-0.1-0.6,0.1-0.6,0.4c-0.1,0.3,0.1,0.6,0.4,0.6c0,0,0,0,0,0c0,0,0.1,0,0.1,0
	c0.2,0,0.5-0.2,0.5-0.4C17.3,34.4,17.1,34.2,16.8,34.1z"/>
<path fill="#E84424" class="st1" d="M20.9,34.3l0.1,0.5L20.9,34.3c-0.3,0-0.5,0.3-0.5,0.6c0,0.3,0.3,0.5,0.5,0.5c0,0,0,0,0.1,0l0,0
	c0.3,0,0.5-0.3,0.5-0.6C21.4,34.4,21.2,34.2,20.9,34.3z"/>
<path fill="#E84424" class="st1" d="M18.9,34.3C18.9,34.3,18.8,34.3,18.9,34.3c-0.3,0-0.5,0.2-0.6,0.5c0,0.3,0.2,0.5,0.5,0.6c0,0,0,0,0,0
	c0.3,0,0.5-0.2,0.5-0.5C19.4,34.6,19.1,34.3,18.9,34.3z"/>
<path fill="#E84424" class="st1" d="M14.9,33.6L14.9,33.6c-0.3-0.1-0.6,0-0.7,0.3c-0.1,0.3,0,0.6,0.3,0.7c0.1,0,0.1,0,0.2,0c0.2,0,0.4-0.1,0.5-0.4
	C15.3,34,15.2,33.7,14.9,33.6z"/>
<path fill="#E84424" class="st1" d="M22.9,33.9l0.1,0.5L22.9,33.9c-0.3,0.1-0.5,0.4-0.4,0.6c0.1,0.2,0.3,0.4,0.5,0.4c0,0,0.1,0,0.1,0c0,0,0,0,0,0
	c0.3-0.1,0.4-0.4,0.4-0.6C23.5,34,23.2,33.8,22.9,33.9z"/>
<path fill="#E84424" class="st1" d="M24.8,33.2l0.2,0.5L24.8,33.2c-0.3,0.1-0.4,0.4-0.3,0.7c0.1,0.2,0.3,0.3,0.5,0.3c0.1,0,0.1,0,0.2,0c0,0,0,0,0,0
	c0.3-0.1,0.4-0.4,0.3-0.7C25.4,33.2,25.1,33.1,24.8,33.2z"/>
<path fill="#E84424" class="st1" d="M12.9,9.1c0.1,0,0.2,0,0.3-0.1c0.3-0.1,0.4-0.5,0.2-0.7c-0.1-0.3-0.5-0.4-0.7-0.2l0,0c-0.3,0.1-0.4,0.5-0.2,0.7
	C12.5,9,12.7,9.1,12.9,9.1z"/>
<path fill="#E84424" class="st1" d="M6.7,15c0.1,0,0.2,0.1,0.2,0.1c0.2,0,0.4-0.1,0.5-0.3l0,0c0.1-0.3,0-0.6-0.2-0.7c-0.3-0.1-0.6,0-0.7,0.2
	C6.4,14.6,6.5,14.9,6.7,15z"/>
<path fill="#E84424" class="st1" d="M6,17c0.1,0,0.1,0,0.2,0c0.2,0,0.4-0.1,0.5-0.4l0,0c0.1-0.3-0.1-0.6-0.4-0.7c-0.3-0.1-0.6,0.1-0.7,0.3
	C5.6,16.6,5.7,16.9,6,17z"/>
<path fill="#E84424" class="st1" d="M7.8,13.2c0.1,0.1,0.2,0.1,0.3,0.1c0.2,0,0.3-0.1,0.4-0.2l0,0c0.2-0.2,0.1-0.6-0.1-0.7
	c-0.2-0.2-0.6-0.1-0.7,0.1l0.4,0.3l-0.4-0.3C7.5,12.7,7.5,13,7.8,13.2z"/>
<path fill="#E84424" class="st1" d="M11.1,10.2c0.1,0,0.2,0,0.3-0.1c0.2-0.2,0.3-0.5,0.1-0.7c-0.2-0.2-0.5-0.3-0.7-0.1l0,0
	c-0.2,0.2-0.3,0.5-0.1,0.7C10.7,10.2,10.9,10.2,11.1,10.2z"/>
<path fill="#E84424" class="st1" d="M5.5,25c0.1,0.2,0.3,0.4,0.5,0.4c0.1,0,0.1,0,0.2,0c0.3-0.1,0.4-0.4,0.4-0.7c-0.1-0.3-0.4-0.4-0.6-0.4
	C5.6,24.4,5.4,24.7,5.5,25C5.5,25,5.5,25,5.5,25z"/>
<path fill="#E84424" class="st1" d="M9.5,11.6c0.1,0,0.3-0.1,0.4-0.2c0.2-0.2,0.2-0.5,0-0.7c-0.2-0.2-0.5-0.2-0.7,0l0,0c-0.2,0.2-0.2,0.5,0,0.7
	C9.2,11.6,9.3,11.6,9.5,11.6z"/>
<path fill="#E84424" class="st1" d="M6.1,22.7c0-0.3-0.3-0.5-0.6-0.5c-0.3,0-0.5,0.3-0.5,0.6l0,0c0,0.3,0.3,0.5,0.5,0.5c0,0,0.1,0,0.1,0
	C5.9,23.3,6.1,23,6.1,22.7z"/>
<path fill="#E84424" class="st1" d="M5.4,21.2C5.4,21.2,5.4,21.2,5.4,21.2C5.7,21.2,6,21,6,20.7l0,0c0-0.3-0.2-0.5-0.5-0.5c-0.3,0-0.5,0.2-0.5,0.5
	C4.9,21,5.1,21.2,5.4,21.2z"/>
<path fill="#E84424" class="st1" d="M5.6,19.1C5.6,19.1,5.6,19.1,5.6,19.1c0.3,0,0.6-0.2,0.6-0.4c0,0,0,0,0,0c0-0.3-0.2-0.6-0.4-0.6
	c-0.3,0-0.6,0.2-0.6,0.4C5.1,18.8,5.3,19,5.6,19.1z"/>
<path fill="#E84424" class="st1" d="M30.5,13.3c0.1,0.1,0.3,0.2,0.4,0.2c0.1,0,0.2,0,0.3-0.1c0.2-0.2,0.3-0.5,0.1-0.7L31,13l0.4-0.3
	c-0.2-0.2-0.5-0.3-0.7-0.1C30.4,12.7,30.4,13.1,30.5,13.3L30.5,13.3z"/>
<path fill="#E84424" class="st1" d="M33.2,18.7c-0.3,0-0.5,0.3-0.5,0.6l0,0c0,0.3,0.3,0.5,0.5,0.5c0,0,0.1,0,0.1,0c0.3,0,0.5-0.3,0.4-0.6
	C33.8,18.8,33.5,18.6,33.2,18.7z"/>
<path fill="#E84424" class="st1" d="M32.3,17.2L32.3,17.2c0.1,0.2,0.3,0.4,0.5,0.4c0,0,0.1,0,0.1,0c0.3-0.1,0.4-0.4,0.4-0.7l0,0
	c-0.1-0.3-0.4-0.4-0.7-0.4C32.4,16.6,32.2,16.9,32.3,17.2z"/>
<path fill="#E84424" class="st1" d="M31.6,15.2c0.1,0.2,0.3,0.3,0.5,0.3c0.1,0,0.2,0,0.2-0.1c0.3-0.1,0.4-0.4,0.2-0.7l-0.5,0.2l0.5-0.2
	c-0.1-0.3-0.4-0.4-0.7-0.3C31.6,14.6,31.5,14.9,31.6,15.2L31.6,15.2z"/>
<path fill="#E84424" class="st1" d="M29.2,11.7c0.1,0.1,0.2,0.2,0.4,0.2c0.1,0,0.3-0.1,0.4-0.2c0.2-0.2,0.2-0.5,0-0.7c-0.2-0.2-0.5-0.2-0.7,0
	C29,11.1,29,11.4,29.2,11.7L29.2,11.7z"/>
<path fill="#E84424" class="st1" d="M33.4,20.9c-0.3,0-0.5,0.2-0.5,0.5c0,0.3,0.2,0.5,0.5,0.6c0,0,0,0,0,0c0.3,0,0.5-0.2,0.5-0.5l0,0
	C33.9,21.1,33.7,20.9,33.4,20.9z"/>
<path fill="#E84424" class="st1" d="M25.8,9.1L25.8,9.1c0.1,0,0.2,0.1,0.3,0.1c0.2,0,0.4-0.1,0.5-0.3c0.1-0.3,0-0.6-0.2-0.7l-0.3,0.5l0.3-0.5
	c-0.3-0.1-0.6,0-0.7,0.2C25.5,8.6,25.5,8.9,25.8,9.1z"/>
<path fill="#E84424" class="st1" d="M27.6,10.2L27.6,10.2c0.1,0.1,0.2,0.1,0.3,0.1c0.2,0,0.3-0.1,0.4-0.2c0.2-0.2,0.1-0.6-0.1-0.7l0,0
	c-0.2-0.2-0.6-0.1-0.7,0.1C27.3,9.7,27.4,10.1,27.6,10.2z"/>
<path fill="#E84424" class="st1" d="M37.8,28.9l-2.5-2.5c-0.2-0.2-0.5-0.3-0.8-0.3c-0.3,0-0.6,0.1-0.8,0.3l-0.1,0.1l-0.2-0.2
	c-0.2-0.2-0.4-0.4-0.5-0.7c0,0,0-0.1,0-0.1c-0.1-0.2-0.1-0.5-0.1-0.7v-0.7c0,0,0.1,0,0.2,0.1c0,0,0.1,0,0.1,0c0.3,0,0.5-0.2,0.5-0.4
	c0.1-0.3-0.1-0.6-0.4-0.6c-0.1,0-0.3,0-0.4,0.1c0-0.8-0.3-1.5-0.9-2l-2.4-2.4c-0.5-0.5-1.3-0.8-2-0.8c-0.6,0-1.2,0.2-1.6,0.5
	l-0.3-0.3v-6.1c0-0.7-0.3-1.4-0.7-2c-0.3-0.4-0.5-0.9-0.5-1.4V8.2h0c0.6,0,1.1-0.5,1.1-1.1V3.6c0-0.6-0.5-1.1-1.1-1.1h-9.9
	c-0.6,0-1.1,0.5-1.1,1.1v3.5c0,0.6,0.5,1.1,1.1,1.1h0.1v0.2c0,0.6-0.2,1.1-0.6,1.5l-1.1,1.1c-0.6,0.6-0.9,1.3-0.9,2.1v3.4
	c0,0.5,0.1,0.9,0.3,1.3c-0.7,0-1.4,0.3-1.9,0.8l-2.4,2.4c-0.6,0.6-0.9,1.3-0.9,2.1v1.5c0,0.6-0.2,1.1-0.6,1.5l-0.2,0.2c0,0,0,0,0,0
	l-0.1-0.1c-0.2-0.2-0.5-0.3-0.8-0.3c-0.3,0-0.6,0.1-0.8,0.3l-2.5,2.5c-0.4,0.4-0.4,1.1,0,1.6l0.9,0.9c0.2,0.2,0.5,0.2,0.7,0
	c0.2-0.2,0.2-0.5,0-0.7l-0.9-0.9c0,0,0-0.1,0-0.1l2.5-2.5c0,0,0.1,0,0.1,0l0.4,0.4h0l5.9,5.9l0.7,0.7c0,0,0,0.1,0,0.1l-2.5,2.5
	c0,0-0.1,0-0.1,0l-4.6-4.7c-0.2-0.2-0.5-0.2-0.7,0c-0.2,0.2-0.2,0.5,0,0.7l4.6,4.7c0.2,0.2,0.5,0.3,0.8,0.3c0.3,0,0.6-0.1,0.8-0.3
	l2.5-2.5c0.4-0.4,0.4-1.1,0-1.6l0,0l0.3-0.3c0.4-0.4,0.9-0.6,1.4-0.6c0.7,0,1.4-0.4,1.9-0.9l2.3-2.3c0.7-0.2,1.2-0.7,1.3-1.4
	c0.2,0.1,0.5,0.2,0.8,0.2c1,0,1.8-0.8,1.8-1.8V25c0.2,0.1,0.5,0.2,0.7,0.2c1,0,1.8-0.8,1.8-1.8v-3.7l1.6,1.6
	c0.1,0.1,0.2,0.2,0.4,0.2c0.1,0,0.3-0.1,0.4-0.2c0.2-0.2,0.2-0.5,0-0.7l-1.4-1.4c0.3-0.1,0.6-0.2,0.9-0.2c0.5,0,0.9,0.2,1.3,0.5
	l2.4,2.4c0.4,0.4,0.6,0.9,0.6,1.4v1.5c0,0.9,0.3,1.7,0.9,2.3l0.2,0.2L32.2,28l-4.6,4.7l-0.3-0.3c0,0,0,0,0,0l0,0
	c-0.5-0.5-1.3-0.9-2-0.9c-0.5,0-0.9-0.2-1.2-0.6l-1.7-1.7c-0.2-0.2-0.5-0.2-0.7,0c-0.2,0.2-0.2,0.5,0,0.7l1.7,1.7
	c0.5,0.5,1.2,0.8,1.9,0.9c0.5,0,1,0.3,1.4,0.6l0,0c0,0,0,0,0,0l0.2,0.2l0,0c-0.4,0.4-0.4,1.1,0,1.6l2.5,2.5c0.2,0.2,0.5,0.3,0.8,0.3
	c0.3,0,0.6-0.1,0.8-0.3l7-7C38.2,30,38.2,29.3,37.8,28.9z M33.2,23.6L33.2,23.6l-0.1,0L33.2,23.6z M16.2,30.8
	c-0.3,0.3-0.8,0.5-1.2,0.6c-0.8,0.1-1.5,0.4-2.1,0.9l-0.3,0.3l-0.3-0.3c0,0,0,0,0,0l-5.1-5.1L7.4,27c0.6-0.6,0.9-1.4,0.9-2.3v-1.5
	c0-0.5,0.2-1,0.6-1.4l2.4-2.4c0.3-0.3,0.8-0.5,1.3-0.5c0.3,0,0.6,0.1,0.9,0.2l-1.4,1.4c-0.2,0.2-0.2,0.5,0,0.7
	c0.1,0.1,0.2,0.2,0.4,0.2c0.1,0,0.3-0.1,0.4-0.2l1.6-1.6v6.6c0,1,0.8,1.8,1.8,1.8c0.3,0,0.5-0.1,0.8-0.2c0.1,0.5,0.4,1,0.9,1.2
	L16.2,30.8z M24.6,23.4c0,0.4-0.3,0.7-0.7,0.7c-0.4,0-0.7-0.3-0.7-0.7v-5.9c0-0.3-0.2-0.5-0.5-0.5c-0.3,0-0.5,0.2-0.5,0.5v8.8
	c0,0.4-0.3,0.7-0.7,0.7c-0.4,0-0.7-0.3-0.7-0.6v-8.9c0-0.3-0.2-0.5-0.5-0.5c-0.1,0-0.2,0-0.3,0.1c-0.2,0.1-0.3,0.3-0.3,0.5v8.8
	c0,0.1,0,0.1,0,0.2v1.1c0,0.4-0.3,0.7-0.7,0.7c-0.4,0-0.7-0.3-0.7-0.7V17.4c0-0.3-0.2-0.5-0.5-0.5c-0.3,0-0.5,0.2-0.5,0.5v8.8
	c0,0.4-0.3,0.7-0.7,0.7c-0.4,0-0.7-0.3-0.7-0.7v-9.8c0-0.3-0.2-0.5-0.5-0.5c-0.3,0-0.5,0.2-0.5,0.5v1.8c0,0-0.1,0-0.1,0.1
	c-0.7-0.3-1.2-0.9-1.2-1.7v-3.4c0-0.5,0.2-1,0.6-1.4l1.1-1.1c0.6-0.6,0.9-1.4,0.9-2.3V8.2h1.1c0.3,0,0.5-0.2,0.5-0.5
	c0-0.3-0.2-0.5-0.5-0.5h-2.2c0,0-0.1,0-0.1-0.1V3.6c0,0,0-0.1,0.1-0.1h9.9c0,0,0.1,0,0.1,0.1v3.5c0,0,0,0.1-0.1,0.1h-5.2
	c-0.3,0-0.5,0.2-0.5,0.5c0,0.3,0.2,0.5,0.5,0.5h4.1v0.4c0,0.8,0.3,1.5,0.8,2.1c0.3,0.4,0.5,0.8,0.5,1.3V23.4z M37,29.7l-7,7
	c0,0,0,0,0,0c0,0,0,0,0,0l-2.5-2.5c0,0,0-0.1,0-0.1l0.4-0.4l0,0l4.1-4.1l2.5-2.5c0,0,0.1,0,0.1,0L37,29.7
	C37.1,29.6,37.1,29.7,37,29.7z"/>
<path fill="#E84424" class="st1" d="M16.2,4.8c-0.3,0-0.6,0.3-0.6,0.6c0,0.3,0.3,0.6,0.6,0.6c0.3,0,0.6-0.3,0.6-0.6C16.8,5.1,16.5,4.8,16.2,4.8z"/>
<path fill="#E84424" class="st1" d="M34.7,28.9c-0.3,0-0.6,0.3-0.6,0.6c0,0.3,0.3,0.6,0.6,0.6c0.3,0,0.6-0.3,0.6-0.6C35.3,29.2,35,28.9,34.7,28.9z"
	/>
<path fill="#E84424" class="st1" d="M10.8,34.3c0-0.3-0.3-0.6-0.6-0.6c-0.3,0-0.6,0.3-0.6,0.6s0.3,0.6,0.6,0.6C10.6,34.9,10.8,34.6,10.8,34.3z"/>
</svg>
