<?xml version="1.0" encoding="UTF-8"?>
<svg width="180px" height="100px" viewBox="0 0 180 100" version="1.1" xmlns="http://www.w3.org/2000/svg" xmlns:xlink="http://www.w3.org/1999/xlink">
    <!-- Generator: Sketch 46.2 (44496) - http://www.bohemiancoding.com/sketch -->
    <title>logo</title>
    <desc>Created with Sketch.</desc>
    <defs>
        <polygon id="path-1" points="90.1315 27 179.442 27 179.442 0.614 0.821 0.614 0.821 27 90.1315 27"></polygon>
    </defs>
    <g id="Symbols" stroke="none" stroke-width="1" fill="none" fill-rule="evenodd">
        <g id="logo">
            <g id="venro_Logo_bo_rgb_OK-Copy">
                <g id="Group-4" transform="translate(0.000000, 73.000000)">
                    <mask id="mask-2" fill="white">
                        <use xlink:href="#path-1"></use>
                    </mask>
                    <g id="Clip-2"></g>
                    <path d="M179.443,8.262 L178.02,8.262 L175.484,4.503 L175.055,4.922 L175.055,8.262 L174.006,8.262 L174.006,0.744 L175.055,0.744 L175.055,3.814 L178.009,0.744 L179.409,0.744 L176.254,3.824 L179.443,8.262 Z M170.389,8.263 L171.438,8.263 L171.438,0.744 L170.389,0.744 L170.389,8.263 Z M166.633,1.616 L166.633,8.262 L165.584,8.262 L165.584,1.616 L163.36,1.616 L163.36,0.744 L168.87,0.744 L168.87,1.616 L166.633,1.616 Z M160.802,8.263 L161.851,8.263 L161.851,0.744 L160.802,0.744 L160.802,8.263 Z M155.27,8.262 L155.27,0.744 L156.319,0.744 L156.319,7.39 L159.271,7.39 L159.271,8.262 L155.27,8.262 Z M152.065,3.368 C151.975,2.994 151.831,2.666 151.636,2.389 C151.44,2.112 151.183,1.891 150.867,1.731 C150.548,1.568 150.161,1.486 149.705,1.486 C149.29,1.486 148.935,1.565 148.64,1.719 C148.343,1.873 148.1,2.085 147.906,2.351 C147.713,2.619 147.574,2.929 147.484,3.287 C147.396,3.643 147.35,4.019 147.35,4.416 C147.35,4.857 147.394,5.266 147.479,5.643 C147.565,6.023 147.703,6.349 147.896,6.626 C148.088,6.905 148.343,7.122 148.661,7.282 C148.979,7.44 149.368,7.52 149.832,7.52 C150.268,7.52 150.636,7.438 150.935,7.277 C151.235,7.115 151.478,6.898 151.662,6.626 C151.848,6.358 151.984,6.043 152.07,5.688 C152.155,5.329 152.199,4.956 152.199,4.568 C152.199,4.143 152.153,3.742 152.065,3.368 Z M153.076,6.043 C152.918,6.532 152.688,6.951 152.384,7.298 C152.081,7.646 151.706,7.915 151.256,8.106 C150.807,8.296 150.288,8.392 149.705,8.392 C149.119,8.392 148.609,8.303 148.175,8.127 C147.74,7.952 147.377,7.701 147.089,7.373 C146.798,7.047 146.583,6.648 146.442,6.178 C146.298,5.707 146.226,5.178 146.226,4.589 C146.226,4.008 146.304,3.474 146.462,2.99 C146.619,2.503 146.849,2.086 147.153,1.734 C147.455,1.382 147.827,1.108 148.271,0.91 C148.713,0.712 149.224,0.614 149.801,0.614 C150.385,0.614 150.899,0.709 151.342,0.9 C151.784,1.09 152.15,1.353 152.439,1.691 C152.727,2.03 152.946,2.432 153.091,2.898 C153.238,3.365 153.311,3.874 153.311,4.428 C153.311,5.016 153.233,5.554 153.076,6.043 Z M143.3,2.001 C143.054,1.746 142.685,1.616 142.193,1.616 L141.219,1.616 L141.219,4.514 L142.202,4.514 C142.68,4.514 143.045,4.379 143.295,4.112 C143.544,3.844 143.668,3.484 143.668,3.033 C143.668,2.604 143.546,2.259 143.3,2.001 Z M144.617,3.97 C144.491,4.267 144.313,4.524 144.081,4.735 C143.85,4.947 143.57,5.108 143.242,5.219 C142.913,5.331 142.545,5.387 142.139,5.387 L141.219,5.387 L141.219,8.262 L140.17,8.262 L140.17,0.744 L142.299,0.744 C143.098,0.744 143.716,0.944 144.152,1.346 C144.585,1.748 144.804,2.29 144.804,2.973 C144.804,3.339 144.741,3.671 144.617,3.97 Z M135.867,3.7 C136.111,3.829 136.375,3.955 136.66,4.077 C136.946,4.199 137.208,4.348 137.451,4.525 C137.695,4.701 137.899,4.915 138.062,5.172 C138.226,5.426 138.308,5.748 138.308,6.137 C138.308,6.518 138.238,6.85 138.099,7.129 C137.96,7.41 137.768,7.645 137.522,7.831 C137.276,8.017 136.987,8.159 136.654,8.252 C136.323,8.346 135.964,8.392 135.579,8.392 C135.3,8.392 135.025,8.372 134.75,8.332 C134.475,8.293 134.205,8.234 133.942,8.156 L134.092,7.229 C134.32,7.308 134.573,7.371 134.852,7.416 C135.129,7.464 135.419,7.487 135.718,7.487 C136.174,7.487 136.534,7.378 136.794,7.163 C137.053,6.947 137.184,6.65 137.184,6.267 C137.184,5.98 137.104,5.747 136.945,5.566 C136.783,5.385 136.58,5.228 136.334,5.091 C136.088,4.954 135.824,4.828 135.541,4.709 C135.259,4.59 134.995,4.447 134.75,4.279 C134.504,4.11 134.3,3.903 134.141,3.66 C133.979,3.415 133.899,3.1 133.899,2.712 C133.899,2.375 133.958,2.076 134.076,1.814 C134.193,1.551 134.359,1.333 134.573,1.158 C134.786,0.982 135.042,0.847 135.338,0.753 C135.634,0.66 135.96,0.614 136.318,0.614 C136.568,0.614 136.833,0.635 137.116,0.678 C137.396,0.721 137.641,0.782 137.848,0.859 L137.656,1.712 C137.449,1.633 137.221,1.577 136.975,1.54 C136.729,1.504 136.49,1.486 136.252,1.486 C135.826,1.486 135.511,1.587 135.312,1.787 C135.111,1.99 135.011,2.264 135.011,2.609 C135.011,2.869 135.095,3.081 135.258,3.251 C135.422,3.42 135.624,3.57 135.867,3.7 Z M131.684,2.069 C131.377,1.881 131.053,1.742 130.71,1.649 C130.368,1.555 130.018,1.507 129.662,1.507 C129.247,1.507 128.882,1.584 128.565,1.736 C128.246,1.886 127.982,2.093 127.767,2.356 C127.553,2.621 127.392,2.936 127.281,3.303 C127.17,3.671 127.115,4.071 127.115,4.503 C127.115,4.972 127.173,5.392 127.29,5.763 C127.409,6.134 127.58,6.448 127.804,6.703 C128.03,6.958 128.303,7.156 128.629,7.291 C128.954,7.43 129.32,7.498 129.726,7.498 C129.933,7.498 130.142,7.486 130.352,7.461 C130.562,7.435 130.753,7.394 130.924,7.336 L130.924,4.308 L131.973,4.308 L131.973,8.009 C131.61,8.129 131.224,8.219 130.82,8.281 C130.413,8.341 130.014,8.37 129.622,8.37 C129.054,8.37 128.543,8.281 128.095,8.101 C127.646,7.922 127.266,7.664 126.952,7.331 C126.64,6.996 126.4,6.599 126.237,6.136 C126.073,5.671 125.991,5.153 125.991,4.577 C125.991,3.982 126.08,3.442 126.258,2.957 C126.438,2.473 126.691,2.057 127.018,1.712 C127.346,1.368 127.739,1.102 128.196,0.916 C128.653,0.729 129.158,0.635 129.716,0.635 C130.143,0.635 130.556,0.686 130.951,0.789 C131.347,0.893 131.715,1.044 132.058,1.243 L131.684,2.069 Z M122.663,8.262 L119.377,2.09 L119.356,2.09 L119.356,8.262 L118.382,8.262 L118.382,0.744 L119.848,0.744 L123.07,6.786 L123.091,6.786 L123.091,0.744 L124.065,0.744 L124.065,8.262 L122.663,8.262 Z M115.311,7.558 C114.833,8.115 114.117,8.392 113.159,8.392 C111.29,8.392 110.356,7.322 110.356,5.182 L110.356,0.744 L111.405,0.744 L111.405,5.088 C111.405,5.891 111.547,6.497 111.829,6.906 C112.11,7.315 112.575,7.52 113.225,7.52 C113.56,7.52 113.84,7.466 114.065,7.358 C114.29,7.25 114.471,7.095 114.61,6.889 C114.75,6.686 114.85,6.436 114.909,6.142 C114.97,5.848 115.001,5.518 115.001,5.153 L115.001,0.744 L116.029,0.744 L116.029,5.095 C116.029,6.18 115.789,7.001 115.311,7.558 Z M104.92,8.262 L104.92,0.744 L105.969,0.744 L105.969,7.39 L108.922,7.39 L108.922,8.262 L104.92,8.262 Z M103.283,8.262 L101.861,8.262 L99.325,4.503 L98.896,4.922 L98.896,8.262 L97.847,8.262 L97.847,0.744 L98.896,0.744 L98.896,3.814 L101.849,0.744 L103.251,0.744 L100.094,3.824 L103.283,8.262 Z M95.102,1.616 C94.834,1.551 94.544,1.519 94.231,1.519 C93.853,1.519 93.512,1.591 93.208,1.736 C92.905,1.878 92.65,2.081 92.443,2.344 C92.236,2.607 92.078,2.922 91.967,3.289 C91.856,3.657 91.801,4.062 91.801,4.508 C91.801,5.466 92.026,6.202 92.476,6.715 C92.925,7.229 93.549,7.487 94.348,7.487 C94.64,7.487 94.927,7.453 95.209,7.385 C95.491,7.317 95.757,7.229 96.007,7.121 L96.241,7.956 C95.942,8.083 95.62,8.182 95.273,8.254 C94.927,8.325 94.579,8.359 94.231,8.359 C93.659,8.359 93.155,8.272 92.716,8.096 C92.277,7.92 91.908,7.671 91.608,7.348 C91.308,7.024 91.08,6.63 90.923,6.167 C90.766,5.704 90.688,5.182 90.688,4.601 C90.688,3.99 90.773,3.438 90.944,2.946 C91.116,2.455 91.359,2.039 91.674,1.702 C91.987,1.365 92.365,1.103 92.807,0.921 C93.249,0.737 93.741,0.647 94.283,0.647 C94.625,0.647 94.951,0.676 95.258,0.737 C95.565,0.799 95.881,0.905 96.211,1.056 L95.91,1.896 C95.64,1.773 95.369,1.679 95.102,1.616 Z M87.681,8.263 L88.729,8.263 L88.729,0.744 L87.681,0.744 L87.681,8.263 Z M86.055,0.84 C85.755,2.039 85.424,3.261 85.06,4.503 C84.696,5.745 84.303,6.999 83.882,8.262 L82.554,8.262 L80.971,1.96 L80.95,1.96 L79.409,8.262 L78.082,8.262 C77.654,6.999 77.259,5.743 76.895,4.497 C76.53,3.251 76.192,1.999 75.878,0.744 L77.055,0.744 C77.29,1.821 77.554,2.888 77.846,3.949 C78.139,5.008 78.449,6.059 78.777,7.1 L78.789,7.1 L80.298,0.744 L81.71,0.744 L83.305,7.1 L83.315,7.1 C83.636,6.05 83.941,4.997 84.23,3.942 C84.518,2.886 84.774,1.821 84.994,0.744 L86.076,0.744 L86.055,0.84 Z M72.775,1.616 L72.775,8.262 L71.727,8.262 L71.727,1.616 L69.5,1.616 L69.5,0.744 L75.011,0.744 L75.011,1.616 L72.775,1.616 Z M66.6,8.262 L63.316,2.09 L63.293,2.09 L63.293,8.262 L62.319,8.262 L62.319,0.744 L63.785,0.744 L67.007,6.786 L67.028,6.786 L67.028,0.744 L68.002,0.744 L68.002,8.262 L66.6,8.262 Z M60.222,7.39 L60.222,8.262 L56.059,8.262 L56.059,0.744 L60.17,0.744 L60.17,1.616 L57.108,1.616 L57.108,3.921 L59.783,3.921 L59.783,4.794 L57.108,4.794 L57.108,7.39 L60.222,7.39 Z M49.415,3.339 C49.314,2.994 49.159,2.695 48.948,2.44 C48.738,2.185 48.469,1.984 48.141,1.837 C47.813,1.69 47.424,1.616 46.975,1.616 L45.734,1.616 L45.734,7.39 L46.952,7.39 C47.817,7.39 48.468,7.142 48.906,6.647 C49.345,6.151 49.563,5.421 49.563,4.459 C49.563,4.057 49.514,3.684 49.415,3.339 Z M50.42,6.043 C50.248,6.525 50.001,6.929 49.676,7.255 C49.351,7.582 48.952,7.831 48.477,8.004 C48.004,8.177 47.466,8.262 46.867,8.262 L44.685,8.262 L44.685,0.744 L47.081,0.744 C47.652,0.744 48.161,0.826 48.606,0.992 C49.053,1.156 49.428,1.396 49.735,1.707 C50.041,2.02 50.276,2.402 50.436,2.855 C50.597,3.307 50.677,3.821 50.677,4.395 C50.677,5.013 50.591,5.563 50.42,6.043 Z M40.725,8.262 L37.441,2.09 L37.419,2.09 L37.419,8.262 L36.444,8.262 L36.444,0.744 L37.91,0.744 L41.131,6.786 L41.153,6.786 L41.153,0.744 L42.126,0.744 L42.126,8.262 L40.725,8.262 Z M32.031,3.679 C31.814,3.079 31.59,2.474 31.362,1.864 L31.341,1.875 C31.119,2.471 30.9,3.069 30.682,3.668 C30.465,4.267 30.256,4.869 30.057,5.472 L32.667,5.472 C32.461,4.876 32.247,4.279 32.031,3.679 Z M33.555,8.262 C33.456,7.94 33.358,7.617 33.262,7.293 C33.166,6.97 33.063,6.647 32.957,6.323 L29.778,6.323 C29.664,6.647 29.556,6.971 29.457,7.298 C29.357,7.625 29.261,7.947 29.168,8.262 L28.077,8.262 C28.504,6.942 28.945,5.657 29.398,4.406 C29.851,3.156 30.324,1.936 30.816,0.744 L31.95,0.744 C32.486,2.008 32.981,3.262 33.438,4.508 C33.895,5.755 34.33,7.006 34.743,8.262 L33.555,8.262 Z M25.295,5.127 C25.016,4.898 24.621,4.783 24.107,4.783 L23.047,4.783 L23.047,7.39 L24.267,7.39 C24.688,7.39 25.033,7.281 25.304,7.062 C25.577,6.842 25.712,6.529 25.712,6.12 C25.712,5.688 25.572,5.358 25.295,5.127 Z M24.947,1.907 C24.729,1.712 24.385,1.616 23.913,1.616 L23.047,1.616 L23.047,3.953 L24.011,3.953 C24.46,3.953 24.782,3.842 24.978,3.619 C25.176,3.397 25.273,3.103 25.273,2.736 C25.273,2.377 25.164,2.1 24.947,1.907 Z M26.562,7.083 C26.417,7.368 26.221,7.597 25.98,7.773 C25.737,7.949 25.458,8.075 25.145,8.149 C24.83,8.224 24.505,8.262 24.171,8.262 L21.998,8.262 L21.998,0.744 L24.075,0.744 C24.796,0.744 25.353,0.903 25.75,1.223 C26.144,1.541 26.344,1.999 26.344,2.596 C26.344,2.97 26.259,3.295 26.092,3.571 C25.924,3.847 25.679,4.057 25.358,4.202 C25.559,4.245 25.745,4.322 25.921,4.433 C26.096,4.544 26.247,4.679 26.376,4.837 C26.503,4.995 26.603,5.177 26.675,5.38 C26.746,5.585 26.782,5.802 26.782,6.033 C26.782,6.45 26.709,6.799 26.562,7.083 Z M18.547,2.344 C18.493,2.202 18.41,2.077 18.296,1.97 C18.182,1.862 18.034,1.777 17.852,1.712 C17.67,1.649 17.447,1.616 17.182,1.616 L16.241,1.616 L16.241,4.05 L17.118,4.05 C17.633,4.05 18.012,3.932 18.259,3.696 C18.505,3.461 18.627,3.161 18.627,2.796 C18.627,2.638 18.601,2.488 18.547,2.344 Z M18.125,4.729 L20.201,8.262 L18.969,8.262 L17.097,4.922 L16.241,4.922 L16.241,8.262 L15.193,8.262 L15.193,0.744 L17.311,0.744 C18.104,0.744 18.712,0.919 19.136,1.271 C19.56,1.623 19.772,2.108 19.772,2.725 C19.772,3.257 19.616,3.689 19.302,4.024 C18.988,4.358 18.596,4.592 18.125,4.729 Z M13.095,7.39 L13.095,8.262 L8.933,8.262 L8.933,0.744 L13.041,0.744 L13.041,1.616 L9.982,1.616 L9.982,3.921 L12.656,3.921 L12.656,4.794 L9.982,4.794 L9.982,7.39 L13.095,7.39 Z M7.349,0.862 C6.6,3.303 5.73,5.771 4.738,8.262 L3.539,8.262 C3.011,6.999 2.523,5.743 2.073,4.497 C1.624,3.251 1.207,1.999 0.821,0.744 L2.01,0.744 C2.308,1.813 2.642,2.878 3.009,3.937 C3.376,4.997 3.767,6.059 4.182,7.121 L4.192,7.11 C4.591,6.069 4.97,5.014 5.327,3.949 C5.682,2.881 6.012,1.813 6.31,0.744 L7.38,0.744 L7.349,0.862 L7.349,0.862 Z" id="Fill-1" fill="#004D9F" mask="url(#mask-2)"></path>
                    <path d="M131.33,25.998 L131.33,26.871 L127.168,26.871 L127.168,19.352 L131.277,19.352 L131.277,20.224 L128.217,20.224 L128.217,22.529 L130.892,22.529 L130.892,23.403 L128.217,23.403 L128.217,25.998 L131.33,25.998 Z M122.373,20.224 L122.373,22.702 L124.975,22.702 L124.975,23.575 L122.373,23.575 L122.373,26.871 L121.325,26.871 L121.325,19.352 L125.273,19.352 L125.273,20.224 L122.373,20.224 Z M115.792,26.871 L115.792,19.352 L116.841,19.352 L116.841,25.998 L119.794,25.998 L119.794,26.871 L115.792,26.871 Z M112.176,26.871 L113.225,26.871 L113.225,19.352 L112.176,19.352 L112.176,26.871 Z M108.547,26.871 L108.547,23.391 L105.188,23.391 L105.188,26.871 L104.139,26.871 L104.139,19.352 L105.188,19.352 L105.188,22.519 L108.547,22.519 L108.547,19.352 L109.596,19.352 L109.596,26.871 L108.547,26.871 Z M98.724,25.998 L98.724,26.871 L94.562,26.871 L94.562,19.352 L98.67,19.352 L98.67,20.224 L95.611,20.224 L95.611,22.529 L98.285,22.529 L98.285,23.403 L95.611,23.403 L95.611,25.998 L98.724,25.998 Z M91.111,20.953 C91.057,20.81 90.974,20.685 90.86,20.578 C90.745,20.47 90.597,20.384 90.416,20.321 C90.233,20.256 90.01,20.224 89.745,20.224 L88.804,20.224 L88.804,22.659 L89.682,22.659 C90.196,22.659 90.576,22.54 90.822,22.304 C91.068,22.07 91.191,21.769 91.191,21.405 C91.191,21.246 91.164,21.095 91.111,20.953 Z M90.688,23.337 L92.764,26.871 L91.533,26.871 L89.661,23.531 L88.804,23.531 L88.804,26.871 L87.756,26.871 L87.756,19.352 L89.874,19.352 C90.667,19.352 91.276,19.528 91.699,19.879 C92.123,20.232 92.336,20.716 92.336,21.333 C92.336,21.866 92.179,22.297 91.866,22.632 C91.551,22.966 91.16,23.201 90.688,23.337 Z M81.571,18.747 C81.415,18.747 81.279,18.692 81.17,18.581 C81.059,18.47 81.004,18.335 81.004,18.178 C81.004,18.019 81.059,17.884 81.17,17.772 C81.279,17.663 81.415,17.607 81.571,17.607 C81.728,17.607 81.862,17.663 81.973,17.772 C82.083,17.884 82.139,18.019 82.139,18.178 C82.139,18.335 82.083,18.47 81.973,18.581 C81.862,18.692 81.728,18.747 81.571,18.747 Z M83.882,18.747 C83.726,18.747 83.592,18.692 83.481,18.581 C83.37,18.47 83.315,18.335 83.315,18.178 C83.315,18.019 83.37,17.884 83.481,17.772 C83.592,17.663 83.726,17.607 83.882,17.607 C84.039,17.607 84.173,17.663 84.284,17.772 C84.394,17.884 84.45,18.019 84.45,18.178 C84.45,18.335 84.394,18.47 84.284,18.581 C84.173,18.692 84.039,18.747 83.882,18.747 Z M83.343,22.287 C83.124,21.687 82.902,21.082 82.674,20.472 L82.651,20.483 C82.431,21.079 82.211,21.677 81.993,22.276 C81.775,22.875 81.568,23.478 81.368,24.081 L83.978,24.081 C83.771,23.485 83.559,22.887 83.343,22.287 Z M84.867,26.871 C84.766,26.548 84.668,26.225 84.572,25.902 C84.476,25.579 84.375,25.254 84.267,24.931 L81.09,24.931 C80.974,25.254 80.868,25.579 80.769,25.907 C80.668,26.233 80.572,26.555 80.48,26.871 L79.387,26.871 C79.816,25.55 80.257,24.264 80.71,23.013 C81.162,21.764 81.635,20.544 82.127,19.352 L83.261,19.352 C83.798,20.617 84.292,21.87 84.748,23.117 C85.205,24.363 85.64,25.615 86.055,26.871 L84.867,26.871 Z M77.109,20.224 L77.109,26.871 L76.06,26.871 L76.06,20.224 L73.834,20.224 L73.834,19.352 L79.345,19.352 L79.345,20.224 L77.109,20.224 Z M71.277,26.871 L72.326,26.871 L72.326,19.352 L71.277,19.352 L71.277,26.871 Z M67.317,26.871 L64.032,20.699 L64.011,20.699 L64.011,26.871 L63.037,26.871 L63.037,19.352 L64.503,19.352 L67.724,25.396 L67.745,25.396 L67.745,19.352 L68.719,19.352 L68.719,26.871 L67.317,26.871 Z M58.622,22.287 C58.405,21.687 58.181,21.082 57.953,20.472 L57.932,20.483 C57.712,21.079 57.491,21.677 57.275,22.276 C57.056,22.875 56.847,23.478 56.648,24.081 L59.26,24.081 C59.052,23.485 58.841,22.887 58.622,22.287 Z M60.147,26.871 C60.047,26.548 59.95,26.225 59.853,25.902 C59.757,25.579 59.656,25.254 59.548,24.931 L56.369,24.931 C56.255,25.254 56.149,25.579 56.048,25.907 C55.948,26.233 55.852,26.555 55.76,26.871 L54.668,26.871 C55.097,25.55 55.538,24.264 55.99,23.013 C56.443,21.764 56.916,20.544 57.408,19.352 L58.542,19.352 C59.077,20.617 59.573,21.87 60.03,23.117 C60.486,24.363 60.922,25.615 61.336,26.871 L60.147,26.871 Z M52.069,26.871 C52.054,25.78 52.016,24.706 51.956,23.651 C51.896,22.595 51.811,21.564 51.705,20.559 L51.694,20.559 L49.553,26.871 L48.537,26.871 L46.396,20.559 L46.375,20.559 C46.282,21.549 46.207,22.577 46.15,23.639 C46.093,24.702 46.058,25.78 46.044,26.871 L45.059,26.871 C45.073,25.62 45.124,24.372 45.209,23.126 C45.295,21.882 45.419,20.622 45.584,19.352 L47.081,19.352 L49.103,25.427 L49.125,25.427 L51.116,19.352 L52.604,19.352 C52.676,20.005 52.74,20.646 52.801,21.275 C52.861,21.904 52.913,22.526 52.956,23.143 C53,23.76 53.032,24.379 53.058,24.996 C53.083,25.615 53.103,26.24 53.117,26.871 L52.069,26.871 Z M42.105,26.166 C41.627,26.722 40.911,27 39.955,27 C38.085,27 37.15,25.929 37.15,23.79 L37.15,19.352 L38.199,19.352 L38.199,23.697 C38.199,24.499 38.341,25.105 38.623,25.514 C38.904,25.923 39.37,26.128 40.019,26.128 C40.353,26.128 40.634,26.074 40.859,25.965 C41.084,25.859 41.265,25.702 41.406,25.497 C41.544,25.294 41.643,25.044 41.704,24.75 C41.764,24.456 41.795,24.126 41.795,23.76 L41.795,19.352 L42.823,19.352 L42.823,23.702 C42.823,24.788 42.583,25.61 42.105,26.166 Z M33.673,26.871 L33.673,23.391 L30.313,23.391 L30.313,26.871 L29.264,26.871 L29.264,19.352 L30.313,19.352 L30.313,22.519 L33.673,22.519 L33.673,19.352 L34.721,19.352 L34.721,26.871 L33.673,26.871 Z M22.618,21.948 C22.519,21.603 22.364,21.302 22.154,21.048 C21.943,20.793 21.674,20.591 21.346,20.446 C21.016,20.297 20.629,20.224 20.18,20.224 L18.937,20.224 L18.937,25.998 L20.157,25.998 C21.022,25.998 21.672,25.75 22.111,25.254 C22.55,24.759 22.768,24.032 22.768,23.068 C22.768,22.665 22.719,22.292 22.618,21.948 Z M23.624,24.652 C23.453,25.133 23.205,25.538 22.881,25.864 C22.556,26.191 22.157,26.44 21.682,26.613 C21.207,26.785 20.671,26.871 20.073,26.871 L17.888,26.871 L17.888,19.352 L20.286,19.352 C20.857,19.352 21.366,19.434 21.811,19.6 C22.256,19.764 22.633,20.003 22.94,20.316 C23.246,20.627 23.481,21.01 23.641,21.463 C23.802,21.914 23.882,22.429 23.882,23.003 C23.882,23.62 23.796,24.171 23.624,24.652 Z M13.93,26.871 L10.645,20.699 L10.622,20.699 L10.622,26.871 L9.649,26.871 L9.649,19.352 L11.115,19.352 L14.336,25.396 L14.357,25.396 L14.357,19.352 L15.331,19.352 L15.331,26.871 L13.93,26.871 Z M6.577,26.166 C6.1,26.722 5.384,27 4.428,27 C2.559,27 1.624,25.929 1.624,23.79 L1.624,19.352 L2.673,19.352 L2.673,23.697 C2.673,24.499 2.813,25.105 3.096,25.514 C3.376,25.923 3.843,26.128 4.492,26.128 C4.826,26.128 5.107,26.074 5.332,25.965 C5.557,25.859 5.738,25.702 5.878,25.497 C6.016,25.294 6.116,25.044 6.177,24.75 C6.237,24.456 6.268,24.126 6.268,23.76 L6.268,19.352 L7.295,19.352 L7.295,23.702 C7.295,24.788 7.055,25.61 6.577,26.166 L6.577,26.166 Z" id="Fill-3" fill="#004D9F" mask="url(#mask-2)"></path>
                </g>
                <path d="M81.405,58.104 C83.554,58.104 85.296,59.858 85.296,62.022 C85.296,64.184 83.554,65.94 81.405,65.94 C79.257,65.94 77.515,64.184 77.515,62.022 C77.515,59.858 79.257,58.104 81.405,58.104" id="Fill-5" fill="#00519E"></path>
                <path d="M105.726,65.94 C103.577,65.94 101.834,64.184 101.834,62.022 C101.834,59.858 103.577,58.104 105.726,58.104 C107.875,58.104 109.617,59.858 109.617,62.022 C109.617,64.184 107.875,65.94 105.726,65.94" id="Fill-6" fill="#3374B1"></path>
                <path d="M128.101,65.94 C125.953,65.94 124.209,64.184 124.209,62.022 C124.209,59.858 125.953,58.104 128.101,58.104 C130.25,58.104 131.992,59.858 131.992,62.022 C131.992,64.184 130.25,65.94 128.101,65.94" id="Fill-7" fill="#6697C5"></path>
                <path d="M151.45,65.94 C149.3,65.94 147.559,64.184 147.559,62.022 C147.559,59.858 149.3,58.104 151.45,58.104 C153.598,58.104 155.341,59.858 155.341,62.022 C155.341,64.184 153.598,65.94 151.45,65.94" id="Fill-8" fill="#99B9D8"></path>
                <g id="Group-12">
                    <path d="M174.797,65.94 C172.648,65.94 170.906,64.184 170.906,62.022 C170.906,59.858 172.648,58.104 174.797,58.104 C176.947,58.104 178.689,59.858 178.689,62.022 C178.689,64.184 176.947,65.94 174.797,65.94" id="Fill-9" fill="#CCD7E5"></path>
                    <path d="M166.235,13.256 C165.125,10.777 163.632,9.537 161.749,9.537 C158.946,9.537 156.876,11.47 155.539,15.336 C154.492,18.361 153.97,22.081 153.97,26.493 C153.97,30.991 154.387,34.604 155.224,37.337 C156.355,41.118 158.237,43.01 160.87,43.01 C163.506,43.01 165.408,41.098 166.578,37.273 C167.458,34.416 167.897,30.695 167.897,26.116 C167.897,20.022 167.342,15.735 166.235,13.256 Z M174.736,44.019 C171.557,49.747 166.996,52.609 161.058,52.609 C154.951,52.609 150.331,49.767 147.195,44.083 C144.559,39.325 143.243,33.368 143.243,26.209 C143.243,19.179 144.538,13.325 147.131,8.652 C150.269,3.01 154.849,0.189 160.87,0.189 C167.019,0.189 171.661,2.968 174.797,8.525 C177.433,13.2 178.749,19.073 178.749,26.147 C178.749,33.263 177.41,39.22 174.736,44.019 Z M126.187,11.432 C125.265,10.253 124.011,9.663 122.422,9.663 L119.66,9.663 L119.66,22.737 C120.246,22.863 120.832,22.925 121.417,22.925 C123.216,22.925 124.639,22.42 125.684,21.41 C126.938,20.231 127.566,18.484 127.566,16.167 C127.566,14.188 127.106,12.611 126.187,11.432 Z M130.201,28.863 L138.983,52.04 L128.473,52.04 L119.66,28.799 L119.66,52.04 L109.562,52.04 L109.562,1.199 L122.359,1.199 C126.582,1.199 130.053,2.38 132.774,4.736 C135.742,7.306 137.226,10.8 137.226,15.22 C137.226,19.052 136.37,22.231 134.655,24.758 C133.567,26.357 132.082,27.725 130.201,28.863 Z M100.861,1.199 L100.797,52.04 L91.262,52.04 L79.154,21.157 L79.844,52.04 L69.619,52.04 L69.619,1.199 L79.353,1.196 L91.703,31.659 L90.824,1.199 L100.861,1.199 Z M51.273,10.8 L51.273,21.789 L60.118,21.789 L60.118,31.388 L51.273,31.388 L51.273,42.442 L61.31,42.442 L61.31,52.04 L41.36,52.04 L41.36,1.199 L61.435,1.199 L61.435,10.8 L51.273,10.8 Z M22.209,52.04 L14.116,52.04 L0,1.199 L10.665,1.199 C11.293,3.895 11.921,6.59 12.547,9.284 C13.718,14.463 14.889,19.62 16.06,24.758 C16.771,27.958 17.504,31.135 18.255,34.294 C18.381,33.452 19.081,30.368 20.358,25.042 C21.633,19.715 22.899,14.463 24.153,9.284 C24.781,6.59 25.428,3.895 26.097,1.199 L36.323,1.199 L22.209,52.04 L22.209,52.04 Z" id="Fill-11" fill="#004D9F"></path>
                </g>
            </g>
        </g>
    </g>
</svg>