<?xml version="1.0" encoding="utf-8"?>
<!-- Generator: Adobe Illustrator 24.1.2, SVG Export Plug-In . SVG Version: 6.00 Build 0)  -->
<svg version="1.1" id="Calque_1" xmlns="http://www.w3.org/2000/svg" xmlns:xlink="http://www.w3.org/1999/xlink" x="0px" y="0px"
	 viewBox="0 0 200 200" style="enable-background:new 0 0 200 200;" xml:space="preserve">
<style type="text/css">
	.st0{fill:none;stroke:#E74425;stroke-width:3;stroke-miterlimit:10;}
	.st1{fill:none;stroke:#E74425;stroke-width:7;stroke-miterlimit:10;}
</style>
<path class="st0" d="M99.63-13.25"/>
<path class="st0" d="M94.82-16.53"/>
<path class="st0" d="M90.23-12.97"/>
<path class="st1" d="M172.96,172.05c-8.28-4-23.1-11.21-27.38-13.21c-4.28-2-15.98-8.03-15.98-8.03s-0.56-9.73-3.99-10.3l0.58-6.58
	c0,0,4-9.14,4-14.86c0,0,4,3.42,5.43-4.29c1.43-7.71,3.43-21.99-2.86-18.57c0,0,1.29-11.42,0.14-18.28
	c-1.14-6.85-7-27.99-33.27-27.99S67.5,71.09,66.36,77.94c-1.14,6.85,0.14,18.28,0.14,18.28c-6.28-3.43-4.28,10.85-2.86,18.57
	c1.43,7.71,5.43,4.29,5.43,4.29c0,5.71,4,14.86,4,14.86l0.58,6.58c-3.43,0.57-3.99,10.3-3.99,10.3s-11.69,6.03-15.98,8.03
	c-4.28,2-19.1,9.21-27.38,13.21c-8.28,4-9.07,29.25-9.07,29.25l82.4,11.27l82.4-11.27C182.03,201.3,181.24,176.05,172.96,172.05z"/>
<line class="st1" x1="20.82" y1="59.67" x2="49.51" y2="76.11"/>
<line class="st1" x1="49.17" y1="24.52" x2="64.6" y2="43.57"/>
<line class="st1" x1="149.31" y1="22.75" x2="134.34" y2="40.78"/>
<line class="st1" x1="150.55" y1="78.44" x2="169.76" y2="52.36"/>
<line class="st1" x1="100.5" y1="28.5" x2="100.5" y2="4.5"/>
<g>
</g>
<g>
</g>
<g>
</g>
<g>
</g>
<g>
</g>
<g>
</g>
<g>
</g>
<g>
</g>
<g>
</g>
<g>
</g>
<g>
</g>
<g>
</g>
<g>
</g>
<g>
</g>
<g>
</g>
</svg>
