<svg id="5baa3c65-d170-4c92-8362-57231e8e73da" data-name="Calque 1" xmlns="http://www.w3.org/2000/svg" viewBox="0 0 118 32"><defs><style>.b654ea72-0fed-4b57-8e32-be15ee39e197{fill:#00a2dd;}.\32 5c89b26-49ff-48e9-bc0c-d18d502a5d2a{fill:#fff;}</style></defs><title>ICO-RESULTS</title><rect class="b654ea72-0fed-4b57-8e32-be15ee39e197" width="118" height="32"/><path class="25c89b26-49ff-48e9-bc0c-d18d502a5d2a" d="M4.54,7.45h6.1A5.32,5.32,0,0,1,14.53,8.8a4.19,4.19,0,0,1,1.14,3v0A4.14,4.14,0,0,1,12.81,16l3.26,4.77H12.64L9.78,16.52H7.47v4.27H4.54Zm5.91,6.48c1.43,0,2.25-.77,2.25-1.89v0c0-1.26-.88-1.91-2.31-1.91H7.47v3.84Z" transform="translate(2 3)"/><path class="25c89b26-49ff-48e9-bc0c-d18d502a5d2a" d="M17.84,7.45H27.91v2.61H20.76v2.7h6.29v2.62H20.76v2.8H28v2.61H17.84ZM24,3.4l2.49,1.09L23.94,6.4H21.73Z" transform="translate(2 3)"/><path class="25c89b26-49ff-48e9-bc0c-d18d502a5d2a" d="M29.22,18.85,31,16.77a6.13,6.13,0,0,0,4,1.62c1.2,0,1.92-.48,1.92-1.26v0c0-.74-.45-1.12-2.68-1.7-2.69-.68-4.43-1.42-4.43-4.07v0c0-2.42,1.95-4,4.67-4a7.7,7.7,0,0,1,5,1.7l-1.53,2.21a6.23,6.23,0,0,0-3.47-1.31c-1.12,0-1.71.51-1.71,1.16v0c0,.88.57,1.16,2.88,1.75,2.7.71,4.23,1.68,4.23,4v0c0,2.65-2,4.14-4.9,4.14A8.48,8.48,0,0,1,29.22,18.85Z" transform="translate(2 3)"/><path class="25c89b26-49ff-48e9-bc0c-d18d502a5d2a" d="M41.65,15.07V7.45h2.93V15c0,2.18,1.09,3.3,2.88,3.3s2.88-1.08,2.88-3.2V7.45h2.94V15c0,4-2.27,6-5.86,6S41.65,19,41.65,15.07Z" transform="translate(2 3)"/><path class="25c89b26-49ff-48e9-bc0c-d18d502a5d2a" d="M55.79,7.45h2.93V18.12h6.66v2.67H55.79Z" transform="translate(2 3)"/><path class="25c89b26-49ff-48e9-bc0c-d18d502a5d2a" d="M68.31,10.15H64.25V7.45H75.31v2.7H71.25V20.79H68.31Z" transform="translate(2 3)"/><path class="25c89b26-49ff-48e9-bc0c-d18d502a5d2a" d="M79.94,7.35h2.71l5.71,13.44H85.3l-1.22-3H78.43l-1.22,3h-3ZM83,15.2l-1.78-4.32L79.48,15.2Z" transform="translate(2 3)"/><path class="25c89b26-49ff-48e9-bc0c-d18d502a5d2a" d="M91.34,10.15H87.28V7.45h11v2.7H94.27V20.79H91.34Z" transform="translate(2 3)"/><path class="25c89b26-49ff-48e9-bc0c-d18d502a5d2a" d="M98.9,18.85l1.74-2.08a6.13,6.13,0,0,0,4,1.62c1.2,0,1.93-.48,1.93-1.26v0c0-.74-.46-1.12-2.69-1.7-2.69-.68-4.42-1.42-4.42-4.07v0c0-2.42,1.94-4,4.67-4a7.69,7.69,0,0,1,5,1.7l-1.52,2.21a6.26,6.26,0,0,0-3.47-1.31c-1.13,0-1.72.51-1.72,1.16v0c0,.88.57,1.16,2.88,1.75,2.71.71,4.23,1.68,4.23,4v0c0,2.65-2,4.14-4.9,4.14A8.48,8.48,0,0,1,98.9,18.85Z" transform="translate(2 3)"/></svg>