<?xml version="1.0" encoding="UTF-8" standalone="no"?>
<!DOCTYPE svg PUBLIC "-//W3C//DTD SVG 1.1//EN" "http://www.w3.org/Graphics/SVG/1.1/DTD/svg11.dtd">
<svg width="100%" height="100%" viewBox="0 0 150 105" version="1.1" xmlns="http://www.w3.org/2000/svg" xmlns:xlink="http://www.w3.org/1999/xlink" xml:space="preserve" xmlns:serif="http://www.serif.com/" style="fill-rule:evenodd;clip-rule:evenodd;stroke-linejoin:round;stroke-miterlimit:2;">
    <g transform="matrix(1.14231,0,0,1.08438,-3.24635,-8.12746)">
        <g transform="matrix(1,0,0,1,-0.0142616,0)">
            <g>
                <g transform="matrix(1.45857,0,0,1.45857,-31.4048,-25.6384)">
                    <path d="M66.28,23.51C66.77,23.52 68.16,23.5 68.01,24C67.88,24.44 67.6,24.56 67.19,24.71C66.99,24.8 66.58,24.89 66.38,24.98C65.97,25.15 65.55,25.22 65.11,25.34C64.71,25.48 64.3,25.63 63.9,25.78C63.56,25.92 62.85,26.32 62.94,26.64C63.35,26.97 64.67,26.26 65.05,26.14C65.99,25.84 66.87,25.49 67.73,25.13C68.23,25 68.72,24.86 69.22,24.73C69.5,24.65 69.57,24.65 69.8,24.54C70.08,24.45 70.36,24.36 70.64,24.27C71.39,24.04 72.67,23.94 72.99,24.56C73.32,25.2 71.6,25.48 71.16,25.63C70.29,25.92 69.44,26.21 68.62,26.55C68.15,26.74 67.71,26.84 67.26,27.03C66.44,27.38 65.14,27.94 65.05,28.31C65.05,28.63 65.45,28.55 65.69,28.5C65.96,28.44 66.19,28.3 66.43,28.2C66.72,28.09 67.02,27.98 67.31,27.88C67.43,27.81 67.56,27.74 67.68,27.67C68.23,27.48 68.83,27.19 69.39,27C70.12,26.71 70.77,26.45 71.5,26.13C71.94,25.95 72.4,25.88 72.87,25.72C73.28,25.57 73.66,25.43 74.1,25.34C74.81,25.2 76.38,25.14 76.6,25.67C76.64,25.77 76.73,25.97 76.7,26.11C76.6,26.56 75.52,26.76 75.07,26.93C74.61,27.1 74.08,27.19 73.59,27.37C73.08,27.55 72.51,27.75 71.99,27.92C71.46,28.1 70.96,28.28 70.47,28.5C69.87,28.77 69.23,29.04 68.66,29.36C68.19,29.62 67.74,29.93 67.29,30.21C67.16,30.29 66.93,30.46 67.02,30.67C67.68,30.95 68.81,30.02 69.29,29.79C70.25,29.34 71.28,28.9 72.33,28.56C73.16,28.28 73.98,28.07 74.83,27.82C75.15,27.73 75.5,27.55 75.82,27.43C76.47,27.19 78.66,26.49 79.03,27.44C79.09,27.6 79.05,27.76 79,27.88C78.81,28.32 78.43,28.26 78,28.45C77.71,28.58 77.37,28.63 77.06,28.77C75.98,29.27 74.8,29.58 73.73,30.07C72.49,30.64 71.22,31.2 70,31.77C69.59,31.96 69.24,32.28 68.88,32.52C68.73,32.59 68.59,32.67 68.44,32.74C67.92,33.05 67.4,33.36 66.88,33.67C66.04,34.23 65.28,34.89 64.48,35.49C64.09,35.78 63.67,36.05 63.28,36.34C62.84,36.67 62.81,36.82 62.47,37.25C62.34,37.38 62.21,37.51 62.08,37.64C61.66,38.18 61.26,38.8 60.98,39.46C60.72,40.07 60.43,41.45 60.66,42.26C60.69,42.38 60.81,42.46 60.87,42.55C61.28,43.19 62.13,43.88 63.29,43.71C63.52,43.7 63.76,43.68 63.99,43.67C64.4,43.58 64.81,43.5 65.22,43.41C65.71,43.24 65.9,43.17 66.35,42.99C66.7,42.81 68.01,41.97 68.35,41.79C68.57,41.66 68.78,41.47 69,41.35C69.63,41.02 70.3,40.7 71.02,40.46C72.14,40.08 73.38,39.89 73.7,41.04C73.78,41.33 73.44,41.99 73.35,42.15C73.12,42.53 72.81,42.95 72.49,43.34C72.22,43.71 71.85,43.99 71.51,44.29C70.63,45.07 68.59,46.65 67.61,47.33C67.18,47.63 66.36,48.17 65.9,48.44C64.98,48.98 62.88,49.8 62.39,49.97C61.74,50.19 61.14,50.53 60.46,50.72C60.07,50.82 59.71,50.99 59.34,51.12C58.95,51.26 58.58,51.33 58.16,51.43C57.86,51.5 57.6,51.63 57.28,51.71C57.01,51.78 56.32,52.02 56.06,51.9C55.65,51.72 55.4,51.36 55.06,51.1C54.84,50.94 54.67,50.73 54.49,50.52C54.3,50.31 54.11,50.11 53.92,49.9C53.83,49.72 53.74,49.55 53.65,49.37C53.61,49.33 53.57,49.28 53.53,49.24C53.37,48.88 53.23,48.53 53.07,48.17C52.41,46.72 51.82,45.3 51.44,43.54C50.91,41.01 51.28,38.21 51.93,36C52.08,35.53 52.22,35.05 52.37,34.58C52.55,34.16 52.74,33.74 52.92,33.31C53.17,32.71 53.43,32.13 53.77,31.62C54.37,30.75 55.05,29.9 55.77,29.14C56,28.91 56.22,28.68 56.45,28.45C56.73,28.13 57.05,27.82 57.38,27.55C57.52,27.4 57.66,27.25 57.8,27.09C57.99,26.87 58.24,26.73 58.47,26.55C58.55,26.48 58.63,26.41 58.71,26.35C59.21,26.05 59.76,25.82 60.3,25.53C60.69,25.32 61.09,25.08 61.5,24.88C61.74,24.77 61.98,24.67 62.22,24.56C62.45,24.43 62.83,24.3 63.1,24.2C63.93,23.99 64.74,23.84 65.57,23.63C65.82,23.54 66.01,23.59 66.28,23.51" style="fill:rgb(238,19,19);"/>
                </g>
                <g transform="matrix(1.45857,0,0,1.45857,-31.4048,-25.6384)">
                    <path d="M80.62,29.05C80.77,29.08 81.02,29.02 81.16,29.09C81.64,29.33 82.17,30.14 82.47,30.58C82.96,31.28 83.58,32.16 84.02,32.9C84.16,33.13 84.23,33.4 84.33,33.66C84.42,33.85 84.52,34.04 84.61,34.23C84.75,34.56 84.86,34.94 84.97,35.31C85.3,36.41 85.5,37.38 85.72,38.59C85.85,39.31 85.81,40.21 85.71,40.89C85.63,41.42 85.67,41.93 85.55,42.4C85.54,42.59 85.52,42.79 85.51,42.98C85.43,43.36 85.41,43.77 85.31,44.15C85.18,44.62 85.02,45.13 84.82,45.56C84.75,45.69 84.67,45.82 84.6,45.96C84.4,46.48 84.24,46.96 84.04,47.47C83.82,48.03 83.43,48.55 83.16,49.06C83,49.36 82.82,49.71 82.6,49.96C82.27,50.34 81.93,50.73 81.6,51.12C81.45,51.27 81.3,51.41 81.15,51.56C81,51.72 80.85,51.89 80.7,52.05C80.58,52.15 80.47,52.25 80.36,52.35C79.57,53.27 78.71,54.08 77.73,54.81C77.51,54.97 77.33,55.19 77.09,55.33C76.87,55.47 76.64,55.61 76.42,55.75C76.01,55.9 75.73,56.07 75.32,56.22C75.23,56.26 75.03,56.4 74.94,56.43C74.62,56.56 74.29,56.77 73.94,56.9C73.57,57.04 73.18,57.09 72.78,57.21C72.29,57.36 71.75,57.54 71.24,57.68C70.54,57.87 69.05,57.85 68.88,57.23C68.75,56.75 69.82,56.66 70.16,56.56C70.39,56.49 70.7,56.43 70.92,56.35C71.45,56.15 71.88,56.01 72.41,55.81C72.63,55.71 72.84,55.61 73.06,55.51C73.3,55.42 73.96,55.12 73.9,54.79C73.85,54.74 73.79,54.67 73.71,54.65C73.6,54.62 73.49,54.71 73.42,54.74C72.96,54.9 72.57,55.01 72.14,55.18C71.47,55.45 70.73,55.74 70.03,55.98C69.62,56.08 69.21,56.17 68.8,56.27C68.22,56.46 67.67,56.67 67.09,56.87C66.95,56.93 66.8,57 66.65,57.06C65.92,57.24 64.37,57.37 64.1,56.68C63.84,56.01 65.35,55.86 65.77,55.7C65.96,55.62 66.18,55.51 66.39,55.45C66.72,55.35 67.01,55.3 67.32,55.18C67.61,55.07 67.94,54.93 68.25,54.83C68.48,54.76 68.72,54.69 68.95,54.62C69.61,54.37 70.29,54.03 70.92,53.74C71.24,53.59 72.42,53.21 72.31,52.77C72.23,52.72 72.12,52.64 71.96,52.66C71.69,52.7 71.55,52.83 71.34,52.92C70.94,53.11 70.59,53.3 70.14,53.44C69.23,53.73 68.38,54.19 67.47,54.51C67.2,54.59 66.92,54.67 66.65,54.75C66.5,54.82 66.35,54.89 66.2,54.96C65.75,55.15 65.47,55.19 64.98,55.33C64.66,55.42 64.09,55.58 63.79,55.69C63.39,55.84 62.34,56.13 61.87,55.98C61.54,55.87 60.98,55.61 60.84,55.32C60.8,55.23 60.84,55.14 60.86,55.07C61.03,54.43 61.79,54.34 62.34,54.09C63.09,53.74 64.02,53.61 64.83,53.32C65.46,53.1 66.08,52.87 66.71,52.65C67.35,52.35 68.04,52.08 68.7,51.82C69.14,51.65 69.55,51.48 69.96,51.3C70.13,51.23 70.3,51.16 70.46,51.09C70.64,50.97 70.89,50.75 70.64,50.55C70.44,50.39 70.2,50.51 69.99,50.59C69.76,50.69 69.53,50.78 69.3,50.88C68.88,51.04 68.5,51.18 68.12,51.37C67.75,51.56 67.61,51.57 67.09,51.77C66.63,52.06 65.81,52.35 65.29,52.61C64.56,52.89 63.77,53.12 62.97,53.31C62.66,53.41 62.36,53.51 62.05,53.61C61.75,53.69 61.45,53.76 61.15,53.84C61.01,53.86 60.87,53.88 60.73,53.9C59.72,54.14 58.6,54.26 58.12,53.39C58.06,53.29 58.08,53.13 58.12,53.03C58.28,52.58 58.81,52.55 59.28,52.41C59.4,52.37 59.61,52.38 59.72,52.34C60.08,52.27 60.34,52.14 60.7,52.06C61.21,51.88 61.81,51.83 62.33,51.65C62.78,51.5 63.22,51.42 63.64,51.26C64.08,51.05 64.66,50.89 65.1,50.68C65.23,50.6 65.37,50.53 65.5,50.45C66.16,50.16 66.73,49.86 67.32,49.49C67.56,49.34 67.82,49.2 68.07,49.05C68.2,48.96 68.32,48.86 68.45,48.77C69.27,48.29 70.15,47.76 70.91,47.21C71.12,47.06 71.28,46.84 71.48,46.68C71.95,46.31 72.74,45.63 73.12,45.17C73.22,45.08 73.31,45 73.41,44.91C73.5,44.77 73.59,44.62 73.68,44.48C74.14,43.87 74.96,42.86 75.21,42.06C75.3,41.77 75.32,41.5 75.38,41.2C75.42,40.99 75.5,40.75 75.47,40.48C75.44,40.23 75.45,39.97 75.39,39.74C75.25,39.23 74.9,38.7 74.41,38.53C74.17,38.44 73.95,38.42 73.7,38.34C73.13,38.17 72.22,38.15 71.57,38.31C71.29,38.42 70.99,38.46 70.71,38.57C70.32,38.72 69.93,38.82 69.43,38.97C69.09,39.1 68.7,39.32 68.42,39.49C68.08,39.68 67.71,39.81 67.35,39.96C66.83,40.19 66.29,40.56 65.77,40.81C65.23,41.07 63.14,42.17 62.83,41.01C62.71,40.55 62.99,39.86 63.13,39.57C63.24,39.35 63.3,39.14 63.42,38.95C63.6,38.74 63.78,38.53 63.96,38.32C64.28,37.93 64.64,37.55 65.01,37.21C65.2,37.03 65.38,36.93 65.58,36.75C65.88,36.41 66.24,36.16 66.62,35.91C67.03,35.64 66.86,35.83 67.27,35.56C67.4,35.49 67.56,35.33 67.69,35.26C67.93,35.1 68.17,34.93 68.41,34.77C68.8,34.51 69.2,34.31 69.61,34.07C70.24,33.7 70.91,33.31 71.54,32.93C71.88,32.78 72.22,32.62 72.57,32.47C72.82,32.33 73.08,32.19 73.33,32.05C73.92,31.75 74.46,31.46 75.07,31.19C76.13,30.72 77.28,30.29 78.38,29.85C78.96,29.62 79.38,29.37 80,29.17C80.22,29.1 80.4,29.11 80.62,29.05" style="fill:rgb(238,19,19);"/>
                </g>
            </g>
        </g>
        <g transform="matrix(1.45857,0,0,1.45857,-31.4048,-25.6384)">
            <path d="M38.46,88.2L37.36,88.2L37.36,81.99L38.46,81.99L38.46,88.2ZM44.28,88.2L44.28,84.1C44.28,83.44 44.12,82.92 43.81,82.52C43.5,82.12 43.01,81.92 42.34,81.92C41.69,81.92 41.22,82.13 40.94,82.55L40.94,81.99L39.84,81.99L39.84,88.2L40.94,88.2L40.94,84.26C40.94,83.84 41.04,83.51 41.24,83.27C41.44,83.03 41.72,82.91 42.08,82.91C42.82,82.91 43.18,83.35 43.18,84.22L43.18,88.2L44.28,88.2ZM45.81,81.04L45.81,81.99L45.18,81.99L45.18,82.93L45.81,82.93L45.81,86.7C45.81,87.22 45.93,87.61 46.16,87.87C46.39,88.13 46.78,88.26 47.33,88.26C47.47,88.26 47.62,88.25 47.79,88.23C47.96,88.21 48.04,88.2 48.05,88.2L48.05,87.25L47.61,87.25C47.33,87.25 47.15,87.19 47.05,87.06C46.95,86.93 46.91,86.72 46.91,86.43L46.91,82.94L48.06,82.94L48.06,82L46.91,82L46.91,81.05L45.81,81.05L45.81,81.04ZM54.82,85.43C54.84,85.31 54.84,85.14 54.84,84.93C54.83,84 54.55,83.26 54,82.71C53.45,82.16 52.71,81.89 51.8,81.89C50.91,81.89 50.18,82.19 49.62,82.8C49.06,83.4 48.77,84.18 48.77,85.12C48.77,86.09 49.06,86.86 49.64,87.44C50.22,88.02 50.98,88.31 51.91,88.31C52.6,88.31 53.18,88.14 53.65,87.81C54.12,87.48 54.47,87.05 54.69,86.53L53.84,86.09C53.4,86.91 52.75,87.32 51.9,87.32C51.31,87.32 50.84,87.15 50.49,86.82C50.13,86.48 49.94,86.02 49.9,85.43L54.82,85.43M51.79,82.84C52.33,82.84 52.78,82.99 53.12,83.3C53.46,83.61 53.66,84.02 53.69,84.53L49.94,84.53C50.01,84 50.21,83.59 50.54,83.29C50.88,82.99 51.29,82.84 51.79,82.84M58.35,81.98C57.69,81.97 57.23,82.18 56.97,82.59L56.97,81.99L55.87,81.99L55.87,88.2L56.97,88.2L56.97,84.3C56.97,83.5 57.33,83.11 58.05,83.11L58.35,83.11L58.35,81.98M63.8,88.2L63.8,84.1C63.8,83.44 63.64,82.92 63.33,82.52C63.02,82.12 62.53,81.92 61.86,81.92C61.21,81.92 60.74,82.13 60.46,82.55L60.46,81.99L59.36,81.99L59.36,88.2L60.46,88.2L60.46,84.26C60.46,83.84 60.56,83.51 60.76,83.27C60.96,83.03 61.24,82.91 61.6,82.91C62.34,82.91 62.7,83.35 62.7,84.22L62.7,88.2L63.8,88.2ZM71.22,88.2L71.22,81.99L70.16,81.99L70.16,82.84C69.96,82.56 69.66,82.33 69.28,82.15C68.89,81.97 68.47,81.88 68.03,81.88C67.11,81.88 66.35,82.18 65.76,82.79C65.16,83.4 64.87,84.17 64.87,85.09C64.87,86.04 65.16,86.81 65.75,87.4C66.34,87.99 67.1,88.29 68.04,88.29C68.56,88.29 69.01,88.18 69.38,87.97C69.76,87.76 70.02,87.52 70.19,87.27L70.19,88.19L71.22,88.19L71.22,88.2ZM66.55,83.5C66.94,83.08 67.44,82.87 68.06,82.87C68.67,82.87 69.17,83.08 69.57,83.5C69.96,83.92 70.16,84.45 70.16,85.1C70.16,85.75 69.97,86.28 69.57,86.7C69.18,87.11 68.68,87.32 68.07,87.32C67.45,87.32 66.95,87.11 66.56,86.7C66.17,86.29 65.97,85.75 65.97,85.1C65.97,84.45 66.17,83.92 66.55,83.5M72.77,81.04L72.77,81.99L72.14,81.99L72.14,82.93L72.77,82.93L72.77,86.7C72.77,87.22 72.89,87.61 73.12,87.87C73.35,88.13 73.74,88.26 74.29,88.26C74.43,88.26 74.58,88.25 74.75,88.23C74.92,88.21 75,88.2 75.01,88.2L75.01,87.25L74.57,87.25C74.29,87.25 74.11,87.19 74.01,87.06C73.91,86.93 73.87,86.72 73.87,86.43L73.87,82.94L75.02,82.94L75.02,82L73.87,82L73.87,81.05L72.77,81.05L72.77,81.04ZM77.14,81.99L76.04,81.99L76.04,88.2L77.14,88.2L77.14,81.99ZM78.22,85.1C78.22,86.04 78.52,86.81 79.12,87.41C79.72,88.01 80.48,88.3 81.41,88.3C82.33,88.3 83.1,88 83.71,87.39C84.32,86.78 84.63,86.01 84.63,85.09C84.63,84.16 84.33,83.4 83.73,82.79C83.13,82.19 82.36,81.89 81.43,81.89C80.51,81.89 79.75,82.19 79.14,82.79C78.52,83.4 78.22,84.17 78.22,85.1M79.33,85.1C79.33,84.45 79.52,83.92 79.91,83.5C80.3,83.09 80.8,82.88 81.42,82.88C82.03,82.88 82.53,83.09 82.92,83.51C83.31,83.93 83.51,84.46 83.51,85.1C83.51,85.74 83.31,86.27 82.92,86.68C82.53,87.09 82.03,87.3 81.42,87.3C80.81,87.3 80.31,87.09 79.92,86.68C79.52,86.27 79.33,85.74 79.33,85.1M90.14,88.2L90.14,84.1C90.14,83.44 89.98,82.92 89.67,82.52C89.36,82.12 88.87,81.92 88.2,81.92C87.55,81.92 87.08,82.13 86.8,82.55L86.8,81.99L85.7,81.99L85.7,88.2L86.8,88.2L86.8,84.26C86.8,83.84 86.9,83.51 87.1,83.27C87.3,83.03 87.58,82.91 87.94,82.91C88.68,82.91 89.04,83.35 89.04,84.22L89.04,88.2L90.14,88.2ZM97.56,88.2L97.56,81.99L96.5,81.99L96.5,82.84C96.3,82.56 96,82.33 95.62,82.15C95.23,81.97 94.81,81.88 94.37,81.88C93.45,81.88 92.69,82.18 92.1,82.79C91.5,83.4 91.21,84.17 91.21,85.09C91.21,86.04 91.5,86.81 92.09,87.4C92.68,87.99 93.44,88.29 94.38,88.29C94.9,88.29 95.35,88.18 95.72,87.97C96.1,87.76 96.36,87.52 96.53,87.27L96.53,88.19L97.56,88.19L97.56,88.2ZM92.89,83.5C93.28,83.08 93.78,82.87 94.4,82.87C95.01,82.87 95.51,83.08 95.91,83.5C96.3,83.92 96.5,84.45 96.5,85.1C96.5,85.75 96.31,86.28 95.91,86.7C95.52,87.11 95.02,87.32 94.41,87.32C93.79,87.32 93.29,87.11 92.9,86.7C92.51,86.29 92.31,85.75 92.31,85.1C92.31,84.45 92.51,83.92 92.89,83.5M100.03,79.72L98.93,79.72L98.93,88.2L100.03,88.2L100.03,79.72ZM37.36,81.42L38.46,81.42L38.46,80.37L37.36,80.37L37.36,81.42ZM76.03,81.42L77.13,81.42L77.13,80.37L76.03,80.37L76.03,81.42ZM87.17,62.78L84.38,62.78L84.38,65.17L87.17,65.17L87.17,62.78ZM51.93,62.78L49.14,62.78L49.14,65.17L51.93,65.17L51.93,62.78ZM27.17,76.06C28.25,76.06 29.15,75.79 29.85,75.25C30.54,74.72 30.9,73.91 30.9,72.84C30.9,71.98 30.71,71.32 30.33,70.87C29.95,70.42 29.32,70.07 28.39,69.81L28.09,69.74C27.96,69.71 27.81,69.68 27.63,69.65C27.45,69.62 27.31,69.59 27.21,69.56C26.6,69.43 26.29,69.15 26.29,68.73C26.29,68.5 26.37,68.32 26.53,68.18C26.69,68.05 26.9,67.98 27.15,67.98C27.58,67.98 28.1,68.15 28.18,68.96L30.71,68.96C30.67,67.95 30.36,67.19 29.78,66.7C29.17,66.19 28.3,65.93 27.2,65.93C26.18,65.93 25.32,66.21 24.65,66.76C23.99,67.3 23.66,68.05 23.66,68.96C23.66,70.46 24.34,71.43 25.73,71.9C26.19,72.05 26.7,72.18 27.25,72.29C27.59,72.36 27.82,72.45 27.96,72.58C28.11,72.71 28.18,72.91 28.18,73.16C28.18,73.39 28.08,73.58 27.89,73.72C27.71,73.85 27.47,73.91 27.18,73.91C26.84,73.91 26.57,73.82 26.39,73.63C26.22,73.45 26.13,73.19 26.12,72.85L23.48,72.85C23.47,73.75 23.74,74.51 24.27,75.11C24.86,75.74 25.83,76.06 27.17,76.06M37.35,76.09C38.88,76.09 40.15,75.6 41.11,74.62C42.07,73.65 42.56,72.41 42.56,70.95C42.56,69.49 42.08,68.27 41.14,67.31C40.2,66.36 38.92,65.87 37.33,65.87C35.83,65.87 34.59,66.37 33.62,67.35C32.65,68.33 32.16,69.56 32.16,71.01C32.16,72.47 32.64,73.69 33.58,74.65C34.52,75.61 35.79,76.09 37.35,76.09M37.35,68.37C38.07,68.37 38.66,68.62 39.11,69.12C39.56,69.62 39.79,70.25 39.79,71C39.79,71.75 39.57,72.38 39.14,72.87C38.71,73.36 38.11,73.61 37.37,73.61C36.65,73.61 36.06,73.36 35.61,72.87C35.16,72.38 34.93,71.75 34.93,71C34.93,70.24 35.15,69.61 35.58,69.12C36.01,68.62 36.61,68.37 37.35,68.37M44.24,75.92L47.03,75.92L47.03,62.35L44.24,62.35L44.24,75.92ZM49.14,75.92L51.93,75.92L51.93,66.05L49.14,66.05L49.14,75.92ZM58.66,76.09C59.74,76.09 60.6,75.82 61.25,75.29L61.46,75.11L61.46,75.92L64,75.92L64,62.35L61.21,62.35L61.21,66.62L61.01,66.5C60.37,66.1 59.53,65.89 58.52,65.89C57.06,65.89 55.86,66.39 54.93,67.37C54,68.36 53.53,69.58 53.53,71.02C53.53,72.5 54,73.73 54.93,74.68C55.88,75.62 57.12,76.09 58.66,76.09M58.81,68.31C59.55,68.31 60.16,68.57 60.62,69.08C61.08,69.59 61.31,70.23 61.31,70.98C61.31,71.73 61.08,72.36 60.64,72.87C60.19,73.38 59.58,73.63 58.81,73.63C58.08,73.63 57.48,73.37 57.01,72.87C56.55,72.37 56.31,71.73 56.31,70.98C56.31,70.22 56.54,69.58 56.99,69.08C57.44,68.57 58.06,68.31 58.81,68.31M70.79,76.09C71.91,76.09 72.8,75.82 73.41,75.29L73.63,75.1L73.63,75.92L76.17,75.92L76.17,66.05L73.57,66.05L73.57,66.86L73.35,66.67C72.77,66.15 71.91,65.89 70.79,65.89C69.27,65.89 68.03,66.37 67.11,67.33C66.19,68.29 65.72,69.52 65.72,70.99C65.72,72.52 66.19,73.77 67.11,74.7C68.03,75.62 69.27,76.09 70.79,76.09M70.98,68.33C71.71,68.33 72.31,68.59 72.78,69.09C73.24,69.59 73.48,70.23 73.48,70.98C73.48,71.75 73.26,72.4 72.81,72.89C72.36,73.39 71.75,73.64 71,73.64C70.25,73.64 69.63,73.38 69.17,72.88C68.71,72.38 68.48,71.74 68.48,70.97C68.48,70.21 68.7,69.57 69.15,69.07C69.59,68.59 70.21,68.33 70.98,68.33M81.09,75.92L81.09,70.01C81.09,69.65 81.17,69.38 81.34,69.2C81.51,69.02 81.81,68.93 82.24,68.93L82.87,68.93L82.87,66C82.19,66.03 81.67,66.26 81.33,66.7L81.1,67L81.1,66.05L78.31,66.05L78.31,75.92L81.09,75.92ZM84.38,75.92L87.17,75.92L87.17,66.05L84.38,66.05L84.38,75.92ZM92.42,76.04C93.05,76.04 93.52,75.99 93.82,75.89L93.82,73.56L93.44,73.56C93.11,73.56 92.87,73.48 92.71,73.31C92.55,73.14 92.48,72.89 92.48,72.52L92.48,68.36L93.82,68.36L93.82,66.07L92.48,66.07L92.48,64.46L89.69,64.46L89.69,66.07L88.8,66.07L88.8,68.36L89.69,68.36L89.69,73.43C89.69,74.27 89.92,74.93 90.37,75.37C90.82,75.81 91.51,76.04 92.42,76.04M100.22,76.09C101.33,76.09 102.26,75.85 102.96,75.37C103.63,74.92 104.13,74.37 104.46,73.75L102.35,72.51C101.83,73.27 101.12,73.66 100.25,73.66C99.64,73.66 99.14,73.51 98.75,73.22C98.36,72.92 98.12,72.51 98.06,72L98.04,71.85L104.83,71.85C104.85,71.54 104.86,71.19 104.86,70.81C104.86,69.33 104.42,68.12 103.56,67.23C102.7,66.34 101.51,65.89 100.01,65.89C98.59,65.89 97.42,66.38 96.52,67.34C95.62,68.31 95.16,69.55 95.16,71.04C95.16,72.6 95.63,73.84 96.55,74.74C97.46,75.64 98.7,76.09 100.22,76.09M99.99,68.16C100.55,68.16 101.01,68.32 101.36,68.64C101.7,68.96 101.9,69.36 101.94,69.83L101.95,69.97L98.11,69.97L98.12,69.83C98.16,69.37 98.35,68.97 98.68,68.65C99.01,68.33 99.45,68.16 99.99,68.16M101.39,65.17L102.79,62.78L100.12,62.78L98.84,65.17L101.39,65.17ZM109.76,76.06C110.84,76.06 111.74,75.79 112.44,75.25C113.13,74.72 113.49,73.91 113.49,72.84C113.49,71.98 113.3,71.32 112.92,70.87C112.54,70.42 111.91,70.07 110.98,69.81L110.68,69.74C110.55,69.71 110.4,69.68 110.22,69.65C110.04,69.62 109.9,69.59 109.8,69.56C109.19,69.43 108.88,69.15 108.88,68.73C108.88,68.5 108.96,68.32 109.12,68.18C109.28,68.05 109.49,67.98 109.74,67.98C110.17,67.98 110.69,68.15 110.77,68.96L113.3,68.96C113.26,67.95 112.95,67.19 112.38,66.7C111.77,66.19 110.9,65.93 109.8,65.93C108.77,65.93 107.92,66.21 107.25,66.76C106.59,67.3 106.26,68.05 106.26,68.96C106.26,70.46 106.94,71.43 108.33,71.9C108.79,72.05 109.3,72.18 109.85,72.29C110.19,72.36 110.42,72.45 110.56,72.58C110.71,72.71 110.78,72.91 110.78,73.16C110.78,73.39 110.68,73.58 110.49,73.72C110.31,73.85 110.07,73.91 109.78,73.91C109.44,73.91 109.17,73.82 108.99,73.63C108.82,73.45 108.73,73.19 108.72,72.85L106.08,72.85C106.07,73.75 106.34,74.51 106.87,75.11C107.45,75.74 108.41,76.06 109.76,76.06" style="fill-rule:nonzero;"/>
        </g>
    </g>
</svg>
