<?xml version="1.0" encoding="utf-8"?>
<!-- Generator: Adobe Illustrator 24.2.2, SVG Export Plug-In . SVG Version: 6.00 Build 0)  -->
<svg version="1.1" id="Calque_1" xmlns="http://www.w3.org/2000/svg" xmlns:xlink="http://www.w3.org/1999/xlink" x="0px" y="0px"
	 viewBox="0 0 841.89 300.33" style="enable-background:new 0 0 841.89 300.33;" xml:space="preserve">
<style type="text/css">
	.st0{fill:#FFFFFF;}
</style>
<g>
	<path class="st0" d="M197.8,128.67l0-2.33c0-26.19-21.24-47.42-47.43-47.42H88.18c-5.11,0-9.26,4.14-9.26,9.26v123.74
		c0,5.12,4.15,9.27,9.27,9.27h93.49c26.28,0,48.61-20.77,48.82-47.04C230.67,152.93,216.9,134.9,197.8,128.67z"/>
</g>
<g>
	<path class="st0" d="M413.18,145.91c-21.17,0-38.4,17.22-38.4,38.4c0,21.17,17.22,38.4,38.4,38.4c21.17,0,38.4-17.22,38.4-38.4
		C451.57,163.13,434.35,145.91,413.18,145.91z M431.97,184.31c0,10.36-8.43,18.8-18.8,18.8c-10.36,0-18.8-8.43-18.8-18.8
		c0-10.36,8.43-18.8,18.8-18.8C423.54,165.51,431.97,173.94,431.97,184.31z"/>
	<path class="st0" d="M536.8,145.91c-21.17,0-38.4,17.22-38.4,38.4c0,21.17,17.22,38.4,38.4,38.4c21.17,0,38.4-17.22,38.4-38.4
		C575.19,163.13,557.97,145.91,536.8,145.91z M555.59,184.31c0,10.36-8.43,18.8-18.8,18.8c-10.36,0-18.8-8.43-18.8-18.8
		c0-10.36,8.43-18.8,18.8-18.8C547.16,165.51,555.59,173.94,555.59,184.31z"/>
	<rect x="350.28" y="147.49" class="st0" width="19.6" height="73.61"/>
	<path class="st0" d="M500.85,147.49h-19.3v-5.51c0-2.37,0.57-4.15,1.69-5.28c1.13-1.13,2.91-1.7,5.28-1.7h12.32v-16.57h-16.51
		c-7.46,0-13.14,1.77-16.88,5.27c-3.72,3.49-5.61,8.58-5.61,15.13v8.65h-12.72v16.41h12.72v57.22h19.71v-57.22h19.3V147.49z"/>
	<path class="st0" d="M675.61,194.81c-3.51,5.19-9.33,8.29-15.59,8.29c-10.36,0-18.8-8.43-18.8-18.8c0-10.36,8.43-18.8,18.8-18.8
		c6.26,0,12.08,3.1,15.59,8.29l0.71,1.05l13.6-14.63l-0.58-0.68c-7.33-8.66-18.01-13.63-29.32-13.63
		c-21.17,0-38.39,17.22-38.39,38.4c0,21.17,17.22,38.4,38.39,38.4c11.3,0,21.99-4.97,29.32-13.63l0.58-0.68l-13.6-14.63
		L675.61,194.81z"/>
	<path class="st0" d="M360.08,118.44c-6.28,0-11.39,5.11-11.39,11.38c0,6.28,5.11,11.38,11.39,11.38c6.28,0,11.38-5.11,11.38-11.38
		C371.46,123.54,366.36,118.44,360.08,118.44z"/>
	<path class="st0" d="M764.26,184.31c0-21.17-17.22-38.4-38.4-38.4c-21.17,0-38.4,17.22-38.4,38.4c0,21.17,17.22,38.4,38.4,38.4
		c12.07,0,22.86-5.6,29.91-14.34l-13.64-14.65c-3.26,5.61-9.33,9.39-16.27,9.39c-8.16,0-15.11-5.24-17.7-12.53h55.58
		C764.09,188.54,764.26,186.44,764.26,184.31z M708.17,178.04c2.59-7.29,9.54-12.53,17.7-12.53c8.16,0,15.11,5.24,17.7,12.53H708.17
		z"/>
	<path class="st0" d="M619.67,145.91c-5.55,0-10.06,0.98-13.41,2.9c-2.49,1.43-4.68,3.39-6.58,5.83v-0.04l-1.77-7.11h-17.81v73.61
		h19.58v-37.01c0-5.61,1.27-10.08,3.76-13.29c2.44-3.13,6.37-4.72,11.69-4.72h8.95v-20.18H619.67z"/>
	<path class="st0" d="M311.35,145.91c-8.23,0-15.77,3.3-21.66,8.8v-36.27h-19.73v102.69h17.35l2.38-7.26v-0.04
		c5.89,5.52,13.41,8.89,21.66,8.89c18.78,0,34-17.19,34-38.4S330.13,145.91,311.35,145.91z M307.83,204.79
		c-10.02,0-18.14-9.17-18.14-20.48c0-11.31,8.12-20.48,18.14-20.48c10.02,0,18.14,9.17,18.14,20.48
		C325.97,195.62,317.85,204.79,307.83,204.79z"/>
</g>
<g>
</g>
<g>
</g>
<g>
</g>
<g>
</g>
<g>
</g>
<g>
</g>
</svg>
