<?xml version="1.0" encoding="utf-8"?>
<!-- Generator: Adobe Illustrator 17.1.0, SVG Export Plug-In . SVG Version: 6.00 Build 0)  -->
<!DOCTYPE svg PUBLIC "-//W3C//DTD SVG 1.1//EN" "http://www.w3.org/Graphics/SVG/1.1/DTD/svg11.dtd">
<svg version="1.1" id="Calque_1" xmlns="http://www.w3.org/2000/svg" xmlns:xlink="http://www.w3.org/1999/xlink" x="0px" y="0px"
	 viewBox="0 600 780.1 157.4" enable-background="new 0 600 780.1 157.4" xml:space="preserve">
<g>
	<g>
		<defs>
			<rect id="SVGID_1_" y="600" width="780" height="157.1"/>
		</defs>
		<clipPath id="SVGID_2_">
			<use xlink:href="#SVGID_1_"  overflow="visible"/>
		</clipPath>
		<path clip-path="url(#SVGID_2_)" fill="#D3DEE0" d="M381.4,670.8c-23.9,0-43.1,19.3-43.1,43.1c0,23.9,19.3,43.1,43.1,43.1
			s43.1-19.3,43.1-43.1C424.5,690,405.2,670.8,381.4,670.8 M381.4,735c-11.7,0-21.1-9.4-21.1-21.1c0-11.7,9.4-21.1,21.1-21.1
			s21.1,9.4,21.1,21.1C402.4,725.6,393,735,381.4,735"/>
	</g>
</g>
<g>
	<g>
		<defs>
			<rect id="SVGID_3_" y="600" width="780" height="157.1"/>
		</defs>
		<clipPath id="SVGID_4_">
			<use xlink:href="#SVGID_3_"  overflow="visible"/>
		</clipPath>
		<path clip-path="url(#SVGID_4_)" fill="#D3DEE0" d="M522.7,670.8c-23.9,0-43.1,19.3-43.1,43.1c0,23.9,19.3,43.1,43.1,43.1
			c23.9,0,43.1-19.3,43.1-43.1C565.8,690,546.3,670.8,522.7,670.8 M543.8,713.8c0,11.7-9.4,21.1-21.1,21.1
			c-11.7,0-21.1-9.4-21.1-21.1c0-11.7,9.4-21.1,21.1-21.1S543.8,702.2,543.8,713.8"/>
	</g>
</g>
<g>
	<g>
		<defs>
			<rect id="SVGID_5_" y="600" width="780" height="157.1"/>
		</defs>
		<clipPath id="SVGID_6_">
			<use xlink:href="#SVGID_5_"  overflow="visible"/>
		</clipPath>
		<rect x="309.3" y="672.3" clip-path="url(#SVGID_6_)" fill="#D3DEE0" width="25.1" height="83"/>
	</g>
</g>
<g>
	<g>
		<defs>
			<rect id="SVGID_7_" y="600" width="780" height="157.1"/>
		</defs>
		<clipPath id="SVGID_8_">
			<use xlink:href="#SVGID_7_"  overflow="visible"/>
		</clipPath>
		<path clip-path="url(#SVGID_8_)" fill="#D3DEE0" d="M300.4,691.1c-3.3-6.6-8.1-11.4-14-15c-5.8-3.6-12.7-5.1-20.3-5.1
			c-9.4,0-17.5,3.3-23.6,9.4v-38.3h-24.9v113.2h21.8l1.8-8.9c2.5,3,5.8,5.3,9.4,7.4c4.3,2.3,9.6,3.3,15.5,3.3c7.4,0,14.2-1.8,20-5.3
			c5.8-3.6,10.7-8.6,14-15.2s5.1-14.2,5.1-22.6C305.5,705,303.7,697.3,300.4,691.1L300.4,691.1z M280.4,713.8
			c0,6.6-1.8,12.2-5.3,16.2c-3.6,4.1-8.1,6.1-13.7,6.1c-5.8,0-10.1-2-13.7-6.1c-3.3-4.1-5.1-9.6-5.1-16.5c0-6.6,1.8-12.2,5.1-16.2
			c3.3-4.1,7.9-6.1,13.7-6.1c5.8,0,10.4,2,13.7,6.1C278.6,701.7,280.4,707.3,280.4,713.8"/>
	</g>
</g>
<g>
	<g>
		<defs>
			<rect id="SVGID_9_" y="600" width="780" height="157.1"/>
		</defs>
		<clipPath id="SVGID_10_">
			<use xlink:href="#SVGID_9_"  overflow="visible"/>
		</clipPath>
		<path clip-path="url(#SVGID_10_)" fill="#D3DEE0" d="M481.9,672.3H461v-3c0-2,0.5-3.6,1.3-4.3s2.3-1.3,4.3-1.3h15.2v-21.6H462
			c-8.6,0-15,2-19.5,6.1c-4.3,4.1-6.6,10.1-6.6,17.8v6.3h-13.7v21.6h13.7v61.4H461v-61.4h20.8L481.9,672.3L481.9,672.3z"/>
	</g>
</g>
<g>
	<g>
		<defs>
			<rect id="SVGID_11_" y="600" width="780" height="157.1"/>
		</defs>
		<clipPath id="SVGID_12_">
			<use xlink:href="#SVGID_11_"  overflow="visible"/>
		</clipPath>
		<path clip-path="url(#SVGID_12_)" fill="#D3DEE0" d="M621.9,670.8h-5.1c-6.3,0-11.4,1-15.2,3.3c-3,1.8-5.6,4.1-7.9,7.1l-1.5-8.9
			h-22.8v83h24.9v-41.4c0-6.3,1.5-11.4,4.3-15c2.8-3.6,7.1-5.3,13.2-5.3h10.1V670.8L621.9,670.8z"/>
	</g>
</g>
<g>
	<g>
		<defs>
			<rect id="SVGID_13_" y="600" width="780" height="157.1"/>
		</defs>
		<clipPath id="SVGID_14_">
			<use xlink:href="#SVGID_13_"  overflow="visible"/>
		</clipPath>
		<path clip-path="url(#SVGID_14_)" fill="#D3DEE0" d="M680.3,725.8c-4.1,5.8-10.4,9.4-17.5,9.4c-11.7,0-21.1-9.4-21.1-21.1
			s9.4-21.1,21.1-21.1c7.1,0,13.4,3.6,17.5,9.4l0.8,1.3l15.2-16.5l-0.8-0.8c-8.1-9.6-20.3-15.2-33-15.2c-23.9,0-43.1,19.3-43.1,43.1
			c0,23.8,19.3,43.1,43.1,43.1c12.7,0,24.6-5.6,33-15.2l0.8-0.8L681,725.1L680.3,725.8z"/>
	</g>
</g>
<g>
	<g>
		<defs>
			<rect id="SVGID_15_" y="600" width="780" height="157.1"/>
		</defs>
		<clipPath id="SVGID_16_">
			<use xlink:href="#SVGID_15_"  overflow="visible"/>
		</clipPath>
		<path clip-path="url(#SVGID_16_)" fill="#D3DEE0" d="M321.7,642.1c-7.9,0-14.2,6.3-14.2,14.2s6.3,14.2,14.2,14.2
			c7.9,0,14.2-6.3,14.2-14.2C336,648.3,329.6,642.1,321.7,642.1"/>
	</g>
</g>
<g>
	<g>
		<defs>
			<rect id="SVGID_17_" y="600" width="780" height="157.1"/>
		</defs>
		<clipPath id="SVGID_18_">
			<use xlink:href="#SVGID_17_"  overflow="visible"/>
		</clipPath>
		<path clip-path="url(#SVGID_18_)" fill="#D3DEE0" d="M766.8,682.8l-0.5-0.5c-1-0.8-1.8-1.5-2.8-2.3l-0.8-0.8
			c-0.8-0.8-1.8-1.3-2.8-1.8c-0.3-0.3-0.8-0.5-1.3-0.8c-0.8-0.5-1.8-1-2.8-1.5c-0.5-0.3-0.8-0.5-1.3-0.8c-1-0.5-1.8-0.8-3-1.3
			c-0.5-0.3-0.8-0.3-1.3-0.5c-1-0.3-1.8-0.5-2.8-0.8l-0.5-0.3c-0.3,0-0.8-0.3-1-0.3c-1-0.3-2-0.5-3-0.5h-0.5c-0.3,0-0.5,0-1-0.3
			c-1.5-0.3-3-0.3-4.6-0.3c-23.9,0-43.1,19.3-43.1,43.1s19.3,43.1,43.1,43.1c12.7,0,24.6-5.6,33-15.2l0.8-0.8l-15.2-16.5l-0.8,1.3
			c-4.1,5.8-10.4,9.4-17.5,9.4c-8.1,0-15.5-4.8-19-12.2H779l0.3-1c0.5-2.8,0.8-5.3,0.8-8.1C780,702.2,775.2,691.1,766.8,682.8
			 M756.4,706.3h-39.3c3-8.1,10.9-13.4,19.5-13.4c1.3,0,2.3,0,3.8,0.5c0.3,0,0.5,0,0.8,0.3c1.3,0.3,2.3,0.8,3.6,1l0.5,0.3
			c1,0.5,2,1,2.8,1.5l0.5,0.3c1,0.8,1.8,1.3,2.8,2.3c0.3,0.3,0.3,0.3,0.5,0.5c1,1,1.8,1.8,2.3,2.8
			C755.1,703.2,755.9,704.8,756.4,706.3"/>
	</g>
</g>
<g>
	<g>
		<defs>
			<rect id="SVGID_19_" y="600" width="780" height="157.1"/>
		</defs>
		<clipPath id="SVGID_20_">
			<use xlink:href="#SVGID_19_"  overflow="visible"/>
		</clipPath>
		<path clip-path="url(#SVGID_20_)" fill="#D3DEE0" d="M774.9,751.2c0.5-0.3,1-0.5,1.5-0.5s1.3,0.3,1.5,0.5c0.5,0.3,1,0.8,1.3,1.3
			s0.5,1,0.5,1.5s-0.3,1-0.5,1.5c-0.3,0.5-0.8,0.8-1.3,1.3c-0.5,0.3-1,0.5-1.5,0.5s-1-0.3-1.5-0.5s-1-0.8-1.3-1.3s-0.5-1-0.5-1.5
			s0.3-1,0.5-1.5C774.2,751.7,774.4,751.5,774.9,751.2 M778,751.7c-0.3-0.3-0.8-0.3-1.3-0.3s-0.8,0-1.3,0.3c-0.3,0.3-0.8,0.5-0.8,1
			c-0.3,0.3-0.3,0.8-0.3,1.3s0,0.8,0.3,1.3s0.5,0.8,0.8,0.8c0.3,0.3,0.8,0.3,1.3,0.3s0.8,0,1.3-0.3s0.8-0.5,1-0.8
			c0.3-0.3,0.3-0.8,0.3-1.3s0-0.8-0.3-1.3C778.5,752.2,778.2,752,778,751.7 M777.7,752.5c0.3,0.3,0.3,0.5,0.3,0.8s0,0.5-0.3,0.5
			c0,0.3-0.3,0.3-0.5,0.5l0.8,1.3h-1l-0.5-1H776v1h-0.8v-3.3h1.3C777.2,752.2,777.5,752.2,777.7,752.5 M776.7,753.7
			c0.3,0,0.3,0,0.3,0l0.3-0.3c0-0.3,0-0.3-0.3-0.3c0,0-0.3,0-0.5,0H776v1h0.8L776.7,753.7L776.7,753.7z"/>
	</g>
</g>
<g>
	<g>
		<defs>
			<rect id="SVGID_21_" y="600" width="780" height="157.1"/>
		</defs>
		<clipPath id="SVGID_22_">
			<use xlink:href="#SVGID_21_"  overflow="visible"/>
		</clipPath>
		<path clip-path="url(#SVGID_22_)" fill="#D3DEE0" d="M160.6,749.3c0.5-0.3,1-0.5,1.5-0.5s1.3,0.3,1.5,0.5c0.5,0.3,1,0.8,1.3,1.3
			s0.5,1,0.5,1.5s-0.3,1-0.5,1.5c-0.3,0.5-0.8,0.8-1.3,1.3c-0.5,0.3-1,0.5-1.5,0.5s-1-0.3-1.5-0.5c-0.5-0.3-1-0.8-1.3-1.3
			s-0.5-1-0.5-1.5s0.3-1,0.5-1.5C159.6,750.2,160.1,749.7,160.6,749.3 M163.4,749.8c-0.3-0.3-0.8-0.3-1.3-0.3s-0.8,0-1.3,0.3
			c-0.3,0.3-0.8,0.5-0.8,1c-0.3,0.3-0.3,0.8-0.3,1.3s0,0.8,0.3,1.3c0.3,0.3,0.5,0.8,0.8,0.8c0.3,0.3,0.8,0.3,1.3,0.3s0.8,0,1.3-0.3
			c0.5-0.3,0.8-0.5,1-0.8c0.2-0.3,0.3-0.8,0.3-1.3s0-0.8-0.3-1.3S163.9,750.2,163.4,749.8 M163.4,750.7c0.3,0.3,0.3,0.5,0.3,0.8
			s0,0.5-0.3,0.5c0,0.3-0.3,0.3-0.5,0.5l0.8,1.3h-1l-0.5-1h-0.5v1h-0.8v-3.3h1.5C162.6,750.3,163.2,750.7,163.4,750.7 M162.4,752
			c0.3,0,0.3,0,0.3,0l0.3-0.3c0-0.3,0-0.3-0.3-0.3c0,0-0.3,0-0.5,0h-0.5v1h0.8V752H162.4z"/>
	</g>
</g>
<g>
	<g>
		<defs>
			<rect id="SVGID_23_" y="600" width="780" height="157.1"/>
		</defs>
		<clipPath id="SVGID_24_">
			<use xlink:href="#SVGID_23_"  overflow="visible"/>
		</clipPath>
		<path clip-path="url(#SVGID_24_)" fill="#D3DEE0" d="M129.9,654.3v-2.5c0-28.7-23.3-51.8-52-51.8H10.1C4.6,600,0,604.5,0,610.1
			v135.2c0,5.6,4.6,10.1,10.1,10.1h102c28.7,0,53-22.6,53.3-51.3C165.7,680.8,150.7,661.1,129.9,654.3"/>
	</g>
</g>
</svg>
