<?xml version="1.0" encoding="utf-8"?>
<!-- Generator: Adobe Illustrator 17.1.0, SVG Export Plug-In . SVG Version: 6.00 Build 0)  -->
<!DOCTYPE svg PUBLIC "-//W3C//DTD SVG 1.1//EN" "http://www.w3.org/Graphics/SVG/1.1/DTD/svg11.dtd">
<svg version="1.1" id="Calque_1" xmlns="http://www.w3.org/2000/svg" xmlns:xlink="http://www.w3.org/1999/xlink" x="0px" y="0px"
	 viewBox="0 0 307.4 61.9" enable-background="new 0 0 307.4 61.9" xml:space="preserve">
<g>
	<defs>
		<rect id="SVGID_1_" y="0" width="307.4" height="61.9"/>
	</defs>
	<clipPath id="SVGID_2_">
		<use xlink:href="#SVGID_1_"  overflow="visible"/>
	</clipPath>
	<path clip-path="url(#SVGID_2_)" fill="#F9F9FA" d="M150.3,27.9c-9.4,0-17,7.6-17,17c0,9.4,7.6,17,17,17c9.4,0,17-7.6,17-17
		C167.3,35.5,159.7,27.9,150.3,27.9 M150.3,53.2c-4.6,0-8.3-3.7-8.3-8.3c0-4.6,3.7-8.3,8.3-8.3c4.6,0,8.3,3.7,8.3,8.3
		C158.6,49.5,154.9,53.2,150.3,53.2"/>
	<path clip-path="url(#SVGID_2_)" fill="#F9F9FA" d="M206,27.9c-9.4,0-17,7.6-17,17c0,9.4,7.6,17,17,17s17-7.6,17-17
		C223,35.5,215.3,27.9,206,27.9 M214.3,44.9c0,4.6-3.7,8.3-8.3,8.3s-8.3-3.7-8.3-8.3c0-4.6,3.7-8.3,8.3-8.3S214.3,40.3,214.3,44.9"
		/>
	<rect x="121.9" y="28.5" clip-path="url(#SVGID_2_)" fill="#F9F9FA" width="9.9" height="32.7"/>
	<path clip-path="url(#SVGID_2_)" fill="#F9F9FA" d="M118.4,35.9c-1.3-2.6-3.2-4.5-5.5-5.9c-2.3-1.4-5-2-8-2c-3.7,0-6.9,1.3-9.3,3.7
		V16.6h-9.8v44.6h8.6l0.7-3.5c1,1.2,2.3,2.1,3.7,2.9c1.7,0.9,3.8,1.3,6.1,1.3c2.9,0,5.6-0.7,7.9-2.1c2.3-1.4,4.2-3.4,5.5-6
		c1.3-2.6,2-5.6,2-8.9C120.4,41.4,119.7,38.4,118.4,35.9L118.4,35.9z M110.5,44.9c0,2.6-0.7,4.8-2.1,6.4c-1.4,1.6-3.2,2.4-5.4,2.4
		c-2.3,0-4-0.8-5.4-2.4c-1.3-1.6-2-3.8-2-6.5c0-2.6,0.7-4.8,2-6.4c1.3-1.6,3.1-2.4,5.4-2.4c2.3,0,4.1,0.8,5.4,2.4
		C109.8,40.1,110.5,42.3,110.5,44.9"/>
	<path clip-path="url(#SVGID_2_)" fill="#F9F9FA" d="M189.9,28.5h-8.2v-1.2c0-0.8,0.2-1.4,0.5-1.7c0.3-0.3,0.9-0.5,1.7-0.5h6v-8.5
		h-7.8c-3.4,0-5.9,0.8-7.7,2.4c-1.7,1.6-2.6,4-2.6,7v2.5h-5.4V37h5.4v24.2h9.9V37h8.2V28.5z"/>
	<path clip-path="url(#SVGID_2_)" fill="#F9F9FA" d="M245.1,27.9h-2c-2.5,0-4.5,0.4-6,1.3c-1.2,0.7-2.2,1.6-3.1,2.8l-0.6-3.5h-9
		v32.7h9.8V44.9c0-2.5,0.6-4.5,1.7-5.9c1.1-1.4,2.8-2.1,5.2-2.1h4V27.9z"/>
	<path clip-path="url(#SVGID_2_)" fill="#F9F9FA" d="M268.1,49.6c-1.6,2.3-4.1,3.7-6.9,3.7c-4.6,0-8.3-3.7-8.3-8.3
		c0-4.6,3.7-8.3,8.3-8.3c2.8,0,5.3,1.4,6.9,3.7l0.3,0.5l6-6.5l-0.3-0.3c-3.2-3.8-8-6-13-6c-9.4,0-17,7.6-17,17c0,9.4,7.6,17,17,17
		c5,0,9.7-2.2,13-6l0.3-0.3l-6-6.5L268.1,49.6z"/>
	<path clip-path="url(#SVGID_2_)" fill="#F9F9FA" d="M126.8,16.6c-3.1,0-5.6,2.5-5.6,5.6c0,3.1,2.5,5.6,5.6,5.6
		c3.1,0,5.6-2.5,5.6-5.6C132.4,19.1,129.9,16.6,126.8,16.6"/>
	<path clip-path="url(#SVGID_2_)" fill="#F9F9FA" d="M302.2,32.7l-0.2-0.2c-0.4-0.3-0.7-0.6-1.1-0.9l-0.3-0.3
		c-0.3-0.3-0.7-0.5-1.1-0.7c-0.1-0.1-0.3-0.2-0.5-0.3c-0.3-0.2-0.7-0.4-1.1-0.6c-0.2-0.1-0.3-0.2-0.5-0.3c-0.4-0.2-0.7-0.3-1.2-0.5
		c-0.2-0.1-0.3-0.1-0.5-0.2c-0.4-0.1-0.7-0.2-1.1-0.3l-0.2-0.1c-0.1,0-0.3-0.1-0.4-0.1c-0.4-0.1-0.8-0.2-1.2-0.2l-0.2,0
		c-0.1,0-0.2,0-0.4-0.1c-0.6-0.1-1.2-0.1-1.8-0.1c-9.4,0-17,7.6-17,17c0,9.4,7.6,17,17,17c5,0,9.7-2.2,13-6l0.3-0.3l-6-6.5l-0.3,0.5
		c-1.6,2.3-4.1,3.7-6.9,3.7c-3.2,0-6.1-1.9-7.5-4.8H307l0.1-0.4c0.2-1.1,0.3-2.1,0.3-3.2C307.4,40.3,305.5,35.9,302.2,32.7
		 M298.1,41.9h-15.5c1.2-3.2,4.3-5.3,7.7-5.3c0.5,0,0.9,0,1.5,0.2c0.1,0,0.2,0,0.3,0.1c0.5,0.1,0.9,0.3,1.4,0.4l0.2,0.1
		c0.4,0.2,0.8,0.4,1.1,0.6l0.2,0.1c0.4,0.3,0.7,0.5,1.1,0.9c0.1,0.1,0.1,0.1,0.2,0.2c0.4,0.4,0.7,0.7,0.9,1.1
		C297.6,40.7,297.9,41.3,298.1,41.9"/>
	<path clip-path="url(#SVGID_2_)" fill="#F9F9FA" d="M305.4,59.6c0.2-0.1,0.4-0.2,0.6-0.2c0.2,0,0.5,0.1,0.6,0.2
		c0.2,0.1,0.4,0.3,0.5,0.5c0.1,0.2,0.2,0.4,0.2,0.6c0,0.2-0.1,0.4-0.2,0.6c-0.1,0.2-0.3,0.3-0.5,0.5c-0.2,0.1-0.4,0.2-0.6,0.2
		c-0.2,0-0.4-0.1-0.6-0.2s-0.4-0.3-0.5-0.5c-0.1-0.2-0.2-0.4-0.2-0.6c0-0.2,0.1-0.4,0.2-0.6C305.1,59.8,305.2,59.7,305.4,59.6
		 M306.6,59.8c-0.1-0.1-0.3-0.1-0.5-0.1c-0.2,0-0.3,0-0.5,0.1c-0.1,0.1-0.3,0.2-0.3,0.4c-0.1,0.1-0.1,0.3-0.1,0.5
		c0,0.2,0,0.3,0.1,0.5s0.2,0.3,0.3,0.3c0.1,0.1,0.3,0.1,0.5,0.1c0.2,0,0.3,0,0.5-0.1c0.2-0.1,0.3-0.2,0.4-0.3
		c0.1-0.1,0.1-0.3,0.1-0.5c0-0.2,0-0.3-0.1-0.5C306.8,60,306.7,59.9,306.6,59.8 M306.5,60.1c0.1,0.1,0.1,0.2,0.1,0.3
		c0,0.1,0,0.2-0.1,0.2c0,0.1-0.1,0.1-0.2,0.2l0.3,0.5h-0.4l-0.2-0.4h-0.2v0.4h-0.3V60h0.5C306.3,60,306.4,60,306.5,60.1 M306.1,60.6
		c0.1,0,0.1,0,0.1,0c0,0,0.1-0.1,0.1-0.1c0-0.1,0-0.1-0.1-0.1c0,0-0.1,0-0.2,0h-0.2v0.4H306.1z"/>
	<path clip-path="url(#SVGID_2_)" fill="#F9F9FA" d="M63.3,58.9c0.2-0.1,0.4-0.2,0.6-0.2c0.2,0,0.5,0.1,0.6,0.2
		c0.2,0.1,0.4,0.3,0.5,0.5c0.1,0.2,0.2,0.4,0.2,0.6c0,0.2-0.1,0.4-0.2,0.6c-0.1,0.2-0.3,0.3-0.5,0.5c-0.2,0.1-0.4,0.2-0.6,0.2
		c-0.2,0-0.4-0.1-0.6-0.2c-0.2-0.1-0.4-0.3-0.5-0.5c-0.1-0.2-0.2-0.4-0.2-0.6c0-0.2,0.1-0.4,0.2-0.6C62.9,59.2,63.1,59,63.3,58.9
		 M64.4,59.1c-0.1-0.1-0.3-0.1-0.5-0.1c-0.2,0-0.3,0-0.5,0.1c-0.1,0.1-0.3,0.2-0.3,0.4C63,59.6,63,59.8,63,60c0,0.2,0,0.3,0.1,0.5
		c0.1,0.1,0.2,0.3,0.3,0.3c0.1,0.1,0.3,0.1,0.5,0.1c0.2,0,0.3,0,0.5-0.1c0.2-0.1,0.3-0.2,0.4-0.3c0.1-0.1,0.1-0.3,0.1-0.5
		c0-0.2,0-0.3-0.1-0.5C64.7,59.3,64.6,59.2,64.4,59.1 M64.4,59.4c0.1,0.1,0.1,0.2,0.1,0.3c0,0.1,0,0.2-0.1,0.2
		c0,0.1-0.1,0.1-0.2,0.2l0.3,0.5h-0.4l-0.2-0.4h-0.2v0.4h-0.3v-1.3H64C64.1,59.3,64.3,59.4,64.4,59.4 M64,59.9c0.1,0,0.1,0,0.1,0
		c0,0,0.1-0.1,0.1-0.1c0-0.1,0-0.1-0.1-0.1c0,0-0.1,0-0.2,0h-0.2v0.4H64z"/>
	<path clip-path="url(#SVGID_2_)" fill="#F9F9FA" d="M51.2,21.4v-1C51.2,9.1,42,0,30.7,0H4C1.8,0,0,1.8,0,4v53.3c0,2.2,1.8,4,4,4
		h40.2c11.3,0,20.9-8.9,21-20.2C65.3,31.9,59.4,24.1,51.2,21.4"/>
</g>
</svg>
