<?xml version="1.0" encoding="utf-8"?>
<!-- Generator: Adobe Illustrator 17.1.0, SVG Export Plug-In . SVG Version: 6.00 Build 0)  -->
<!DOCTYPE svg PUBLIC "-//W3C//DTD SVG 1.1//EN" "http://www.w3.org/Graphics/SVG/1.1/DTD/svg11.dtd">
<svg version="1.1" id="Calque_1" xmlns="http://www.w3.org/2000/svg" xmlns:xlink="http://www.w3.org/1999/xlink" x="0px" y="0px"
	 viewBox="30.4 36.9 730.5 691.1" enable-background="new 30.4 36.9 730.5 691.1" xml:space="preserve">
<path display="none" d="M713,431.3H435.8v282.2c0,24-19.1,43.3-42.6,43.3c-23.7,0-42.6-19.5-42.6-43.3V431.3H73
	c-23.5,0-42.6-19.3-42.6-43.3s19.1-43.3,42.6-43.3h277.3V62.3c0-24,19.1-43.3,42.6-43.3c23.7,0,42.6,19.5,42.6,43.3v282.2h277.3
	c23.7,0,42.6,19.5,42.6,43.3C755.3,411.6,736.7,431.3,713,431.3z"/>
<path display="none" fill="#B71736" d="M764.7,148.4c-17.8,23.8-36.5,45.2-60.2,63c-3.4,2.6-9.3,5.3-9.3,10.2
	c0,125.1-32,250-123.2,340.6C455.9,677.7,281.7,708.9,127.1,666.3C97.2,658,68.5,646.5,41,631.9c-9.1-4.9-18-10-26.9-15.9
	c-2.3-1.9-4-3.4-1.9-4.5c1.9-0.9,3.4-0.9,10.2,0c43.3,4.4,87.8-2.1,128.7-16.5c22.5-7.9,70.8-23.7,84.8-44.9
	c0.4-0.6,0.6-0.6,0.9-0.9c-5.7-1.3-11.4-1.3-16.8-2.3C178,535,122,513.8,95.9,443c-1.7-4.2,0-6.2,4.4-5.5c34.6,2.6,46.9,0.8,59-1.9
	c-6.8-1.1-13.8-3.4-20.1-6.1c-53-20.1-91.6-71.7-98.6-127.6c-0.8-6.8-1.1-12.3-0.8-18.4c0.4-4.2,2.1-5.5,5.9-3.2
	c27.3,14,57.7,17.4,60.2,16.8c-6.8-5.3-13.1-11.2-19.1-16.8C41,236.9,23,148.6,59.8,93.5c2.8-4.4,4.9-4.4,8.5-0.2
	c84,95.6,187.4,140.2,312.1,158.8c3.2,0.6,3.6,0,3.2-3.6c-3.2-22-3.6-43.5,1.7-65.3c5.5-22.5,16.3-43.7,30.8-61.7
	c14.2-17.4,31.8-31.8,51.7-42.2s41.6-16.7,64-18.2c22.9-1.5,46.2,2.3,67.6,10.8c16.3,6.6,30.7,15.5,44.1,26.9
	c2.8,2.3,5.3,5.1,7.9,8.1c1.7,1.7,3.6,2.3,6.2,1.7c32-7.9,61.9-19.3,90.8-34.8c1.1-0.4,2.1-0.8,3.8,0c1.3,0.9,0.8,2.6,0.2,4
	c-5.1,16.8-14.4,32.6-25.5,46.4c-7.2,9.1-25.4,31.4-37.7,33.3c25.9-4.4,52.4-11,76.5-21.8c3-1.3,2.8-2.1,2.8,0c0,0,0,0.4,0,0.6
	C768.5,138.3,768.7,143.1,764.7,148.4z"/>
<path display="none" fill="#0076B2" d="M680.7,36.9H100.1c-27.6,0-50.3,22-50.3,49.2v583.1c0,27.1,22.5,49.2,50.3,49.2h580.6
	c27.8,0,50.3-22,50.3-49.2V85.9C731,58.9,708.5,36.9,680.7,36.9z M251.8,617.3H150.8V292.2h101.1L251.8,617.3L251.8,617.3z
	 M201.3,247.7c-32.4,0-58.7-26.3-58.7-58.7s26.1-58.7,58.7-58.7c32.4,0,58.5,26.3,58.5,58.7C259.8,221.6,233.7,247.7,201.3,247.7z
	 M630.3,617.3H529.3v-158c0-37.7-0.6-86.3-52.4-86.3c-52.6,0-60.6,41.1-60.6,83.5v160.9H315.4V292.2h96.9v44.5h1.3
	c13.4-25.5,46.4-52.4,95.6-52.4c102.4,0,121.3,67.4,121.3,154.8v178.3H630.3z"/>
<path display="none" fill="#3D5A98" d="M718.3,17.4H70.5c-22.1,0-40.1,18-40.1,40.3v647.6c0,22.1,18,40.1,40.1,40.1h348.6V463.7
	h-94.8v-110h94.8v-81c0-94.1,57.3-145.2,141.4-145.2c40.1,0,74.8,3,84.8,4.4v98.2h-58.1c-45.6,0-54.5,21.8-54.5,53.6v70.2h108.8
	l-14.2,110h-94.6v282h185.5c22.1,0,40.1-18,40.1-40.1v-648C758.5,35.4,740.5,17.4,718.3,17.4z"/>
<path fill="#FF4713" d="M603.5,282.2V271c0-126.2-102.4-228.6-228.6-228.6H75.1c-24.6,0-44.7,19.9-44.7,44.5v596.5
	c0,24.6,20.1,44.7,44.7,44.7h450.6c126.6,0,234.3-100.1,235.2-226.7C761.9,399.1,695.4,312.1,603.5,282.2z"/>
</svg>
